<?xml version="1.0" encoding="utf-8"?>
<!-- Generator: Adobe Illustrator 27.5.0, SVG Export Plug-In . SVG Version: 6.00 Build 0)  -->
<svg version="1.1" id="Layer_1" xmlns="http://www.w3.org/2000/svg" xmlns:xlink="http://www.w3.org/1999/xlink" x="0px" y="0px"
	 viewBox="0 0 448 502" style="enable-background:new 0 0 448 502;" xml:space="preserve">
<style type="text/css">
	.st0{fill:#000061;}
</style>
<path class="st0" d="M234.5,481.4c4.8-5.4,9.9-11.2,13.5-14.8c7.1-7.1,14.4-7,14.4-7s-8.4-4.1-17.2,4.7c-2.4,2.4-7.7,8.4-13.1,14.5
	c-2-2.2-3.9-4.4-5.7-6.4c2-2.2,3.9-4.2,5.4-5.8c7.1-7.1,14.4-7,14.4-7s-8.4-4.1-17.2,4.7c-1.1,1.1-2.9,3.1-5,5.4
	c-2.1-2.4-3.9-4.3-5-5.4c-8.8-8.8-17.2-4.7-17.2-4.7s7.3-0.1,14.4,7c1.6,1.6,3.4,3.6,5.4,5.8c-1.8,2-3.8,4.2-5.7,6.4
	c-5.4-6.1-10.8-12.1-13.1-14.5c-8.8-8.8-17.2-4.7-17.2-4.7s7.3-0.1,14.4,7c3.6,3.6,8.7,9.4,13.5,14.8c-4.5,5.1-8.9,9.9-11.3,12.3
	c-5.9,5.9-12.8,6.4-12.8,6.4s7.4,4.3,17.5-6c1.9-1.9,5.2-5.7,9-10c2.1,2.3,4,4.5,5.6,6.3c-1.2,1.3-2.3,2.5-3.1,3.3
	c-5.9,5.9-12.8,6.4-12.8,6.4s7.4,4.3,17.5-6c0.3-0.3,0.6-0.6,0.9-0.9c0.3,0.3,0.6,0.7,0.9,0.9c10.1,10.3,17.5,6,17.5,6
	s-6.9-0.5-12.8-6.4c-0.8-0.8-1.9-2-3.1-3.3c1.6-1.8,3.6-4,5.6-6.3c3.8,4.3,7.1,8.1,9,10c10.1,10.3,17.5,6,17.5,6s-6.9-0.5-12.8-6.4
	C243.3,491.3,239,486.5,234.5,481.4L234.5,481.4z M224,487.8c-1.8-1.9-3.7-4.1-5.7-6.3c1.9-2.1,3.8-4.3,5.7-6.4
	c1.9,2.1,3.8,4.3,5.7,6.4C227.7,483.7,225.8,485.8,224,487.8z"/>
<path class="st0" d="M38.8,176.7c1.1,3.5,4.3,5.6,8.3,5.6c1.2,0,2.4-0.2,3.5-0.6c0.1,0.2,0.3,0.5,0.5,0.8c0.6,0.8,1.3,1.5,2.1,2.1
	c0.3,0.2,0.5,0.3,0.8,0.3c0.5,0,0.9-0.2,1.2-0.6c0.5-0.7,0.3-1.6-0.4-2.1c-0.5-0.4-1-0.8-1.4-1.4c-0.1-0.1-0.2-0.2-0.2-0.3
	c1.6-1,2.9-2.2,3.7-3.7c1-1.9,1.2-4,0.6-6c-0.6-1.9-2.2-2.5-3-2.6c-0.1,0-0.2,0-0.3,0.1c-0.1-0.5-0.2-1-0.4-1.5
	c-1.5-4.6-5.6-8.3-8.8-8c-0.4-0.3-1-0.7-1.8-0.4c-0.8,0.2-1.1,0.9-1.2,1.4c-0.8,0.4-1.5,1.2-2,2.2c-1.3,2.6-1.6,6.2-0.6,9.4
	c0.2,0.5,0.3,0.9,0.5,1.4c-0.1,0-0.2,0.1-0.3,0.1C39.1,173.4,38.2,174.8,38.8,176.7L38.8,176.7z M54.9,172.4c0.2,1,0,2-0.5,3
	c-0.8,1.6-2.5,2.9-4.6,3.5c-0.9,0.3-1.8,0.4-2.7,0.4c-2.4,0-4.3-1.1-5.2-2.9c1,0.2,2,0.3,2.6,0.3c1.5,0,3-0.2,4.5-0.7
	C51.4,175.3,53.6,173.9,54.9,172.4L54.9,172.4z M42.7,163.4c0.4-0.7,0.7-1,1-1.1c0.3-0.1,0.5-0.2,0.7-0.4c0.2,0.1,0.5,0,0.8-0.1
	c1.2-0.4,4.6,2.1,5.8,5.9c0.4,1.2,0.5,2.5,0.5,3.8c-0.8,0.6-2,1.3-3.5,1.8c-1.2,0.4-2.4,0.6-3.6,0.6c-0.1,0-0.2,0-0.3,0
	c-0.7-1-1.3-2.1-1.7-3.3C41.5,167.7,41.9,164.9,42.7,163.4L42.7,163.4z"/>
<path class="st0" d="M73.2,201.5c2,0,3.1-1.4,3.3-2.2c0-0.1,0-0.2,0-0.3c0.4,0,0.8,0.1,1.2,0.1h0.3c3.3-0.1,6.7-1.5,8.7-3.6
	c0.8-0.8,1.3-1.8,1.5-2.6c0.4-0.3,0.9-0.7,0.9-1.5c0-0.8-0.5-1.3-1-1.6c-0.8-3.1-5.5-5.9-10.4-5.8c-0.5,0-1,0.1-1.5,0.1
	c0-0.1,0-0.2,0-0.3c-0.3-0.8-1.3-2-3.4-2l0,0c-2.4,0.1-4.6,1.2-6.1,3.1c-0.8,1.1-1.4,2.5-1.8,3.9c-0.1,0-0.2-0.1-0.3-0.1
	c-0.7-0.2-1.2-0.5-1.8-0.9c-0.7-0.5-1.6-0.4-2.1,0.3c-0.5,0.7-0.3,1.6,0.3,2.1c0.8,0.6,1.7,1,2.6,1.4c0.4,0.1,0.7,0.2,0.9,0.3
	c0.2,5.6,3.7,9.6,8.4,9.6C73.1,201.5,73.2,201.5,73.2,201.5L73.2,201.5z M77.8,187c3.9-0.1,7.4,2.4,7.5,3.6c0,0.3,0.1,0.6,0.2,0.8
	c-0.1,0.2-0.2,0.5-0.2,0.8c0,0.2-0.2,0.7-0.7,1.3c-1.2,1.2-3.7,2.6-6.6,2.6c-1.3,0-2.6-0.2-3.7-0.5c-0.4-1-0.7-2.3-0.7-3.9
	c0-1.6,0.2-2.9,0.5-3.9C75.3,187.3,76.5,187,77.8,187L77.8,187z M67.6,191.7c-0.1-1.9,0.5-3.7,1.5-5c0.6-0.8,1.6-1.6,3.1-1.9
	c-1,1.7-1.6,4.3-1.5,6.8c0.1,2.5,0.8,5.1,1.9,6.8C69.7,198.1,67.7,195.4,67.6,191.7z"/>
<path class="st0" d="M57.1,273.8c0.3-1.1,0.3-2.2,0-3c0.2-0.4,0.4-1.1,0-1.8c-0.4-0.7-1.1-0.8-1.6-0.9c-2.2-2.3-7.8-2.3-11.9,0.2
	c-0.4,0.3-0.8,0.5-1.2,0.8c-0.1-0.1-0.1-0.2-0.2-0.2c-0.1-0.1-0.9-0.6-2-0.6c-0.7,0-1.3,0.2-2,0.6c-2.1,1.3-3.4,3.3-3.8,5.8
	c-0.2,1.4,0,2.9,0.4,4.3c-0.1,0-0.2,0-0.3,0.1c-0.7,0.1-1.3,0.2-2,0.1c-0.8-0.1-1.6,0.5-1.7,1.3s0.5,1.6,1.3,1.6
	c0.3,0,0.7,0.1,1,0.1c0.6,0,1.3-0.1,1.9-0.2c0.4-0.1,0.7-0.2,0.9-0.2c2,3.2,5,5.2,8.2,5.2c1.4,0,2.8-0.4,4-1.1c1.7-1,2-2.7,1.8-3.5
	c0-0.1-0.1-0.2-0.1-0.3c0.4-0.2,0.9-0.5,1.3-0.7C54.1,279.5,56.4,276.6,57.1,273.8L57.1,273.8z M45.1,270.8c3.4-2,7.6-1.6,8.2-0.6
	c0.2,0.3,0.4,0.5,0.6,0.6c0,0.2,0.1,0.5,0.2,0.8c0.1,0.2,0.2,0.7,0,1.5c-0.4,1.6-2,4.1-4.4,5.6c-1.1,0.7-2.3,1.1-3.5,1.4
	c-0.8-0.7-1.8-1.7-2.6-3c-0.8-1.4-1.2-2.6-1.5-3.7C43,272.3,44,271.5,45.1,270.8L45.1,270.8z M38.6,280c-1-1.7-1.4-3.5-1.2-5.1
	c0.1-1,0.5-2.2,1.7-3.2c0,2,0.7,4.5,2,6.7c1.3,2.2,3.2,4,5,4.9C43.6,284.5,40.4,283.1,38.6,280L38.6,280z"/>
<path class="st0" d="M4.9,276.9c0.4,0.4,0.8,0.7,1.1,1c-0.1,0.1-0.1,0.1-0.2,0.2c-0.3,0.8-0.4,2.5,1,3.9c1.5,1.4,3.3,2.1,5.4,2.1
	l0,0c2.6,0,5.4-1.3,7.5-3.5c0.2,0.1,0.5,0.3,0.9,0.4c0.9,0.4,1.9,0.7,2.9,0.8c0,0,0.1,0,0.1,0c0.8,0,1.4-0.6,1.5-1.4
	c0.1-0.8-0.5-1.5-1.4-1.6c-0.7-0.1-1.3-0.2-1.9-0.5c-0.1-0.1-0.2-0.1-0.3-0.1c0.9-1.6,1.4-3.4,1.3-5c-0.1-2.1-0.9-4-2.5-5.5
	c-0.9-0.9-1.9-1.1-2.5-1.1c-0.7,0-1.2,0.2-1.4,0.3c-0.1,0-0.2,0.1-0.2,0.2c-0.3-0.4-0.7-0.8-1-1.1c-3.5-3.3-8.9-4.5-11.6-2.7
	c-0.5-0.1-1.2-0.1-1.8,0.5c-0.5,0.6-0.5,1.3-0.4,1.8c-0.5,0.8-0.7,1.8-0.6,3C0.9,271.3,2.5,274.6,4.9,276.9L4.9,276.9z M19.9,273.2
	c0.1,1.8-0.8,3.7-2.3,5.3c-1.5,1.6-3.5,2.6-5.3,2.6l0,0c-1,0-1.9-0.3-2.7-0.9c1.9-0.5,4.1-1.9,5.9-3.8c1.8-1.9,3-4.2,3.4-6.1
	C19.5,271.1,19.8,272.1,19.9,273.2L19.9,273.2z M4.2,266.9c0.2-0.2,0.3-0.5,0.4-0.7c0.2-0.1,0.5-0.2,0.7-0.4c0.8-0.9,5.1-0.4,8,2.3
	c1,0.9,1.7,1.9,2.3,3c-0.4,1-1.1,2.1-2.2,3.3c-1.1,1.1-2.2,1.9-3.2,2.4c-1.1-0.5-2.1-1.2-3.1-2.1c-2.1-2-3.1-4.7-3.1-6.4
	C3.8,267.6,4,267.1,4.2,266.9L4.2,266.9z"/>
<path class="st0" d="M69.9,357.5c-0.3-1.1-0.8-2-1.5-2.6c0-0.5-0.2-1.2-0.8-1.5c-0.7-0.4-1.4-0.2-1.8,0c-3-1-7.9,1.7-10.3,5.9
	c-0.2,0.4-0.5,0.9-0.7,1.3c-0.1,0-0.2-0.1-0.3-0.1c-0.1,0-0.3,0-0.4,0c-1.3,0-2.4,0.7-3.1,1.9c-2,3.4-1,7.5,2,10.4
	c-0.1,0.1-0.2,0.1-0.3,0.2c-0.5,0.5-1.1,0.8-1.7,1c-0.8,0.3-1.1,1.2-0.8,2c0.2,0.6,0.8,0.9,1.4,0.9c0.2,0,0.4,0,0.6-0.1
	c0.9-0.4,1.8-0.9,2.5-1.6c0.3-0.2,0.5-0.5,0.7-0.6c1.8,1,3.7,1.6,5.6,1.6c3.1,0,5.6-1.5,7.1-4c1-1.8,0.4-3.3-0.1-4
	c-0.1-0.1-0.2-0.1-0.2-0.2c0.3-0.4,0.6-0.8,0.8-1.3C70.1,363.9,70.6,360.3,69.9,357.5L69.9,357.5z M58,360.8c2-3.4,5.9-5.1,6.9-4.5
	c0.3,0.2,0.5,0.2,0.8,0.2c0.1,0.2,0.3,0.4,0.6,0.5c0.2,0.1,0.5,0.5,0.7,1.3c0.4,1.6,0.3,4.5-1.2,7c-0.7,1.1-1.4,2.1-2.3,2.8
	c-1.1-0.2-2.4-0.6-3.8-1.4c-1.4-0.8-2.4-1.7-3-2.5C56.9,363.1,57.3,361.9,58,360.8L58,360.8z M56.7,372c-2.7-1.6-4.7-4.6-3.5-7.5
	c0.9,1.7,2.8,3.6,5,4.9c2.2,1.3,4.8,2,6.7,1.9C63.3,373.5,59.8,373.7,56.7,372L56.7,372z"/>
<path class="st0" d="M45,378.4c-0.3-0.8-1.2-1.1-2-0.8c-0.6,0.3-1.2,0.4-1.9,0.5c-0.2,0-0.2,0-0.3,0c0-1.5-0.2-3-0.8-4.2
	c-1-2.2-2.9-3.8-5.3-4.4c-1.7-0.4-3.2,0.5-3.8,1.2c-0.1,0.1-0.1,0.2-0.1,0.3c-0.5-0.2-1-0.3-1.4-0.4c-4.7-1.2-9.9,0.4-11.4,3.3
	c-0.5,0.2-1.1,0.5-1.3,1.3c-0.2,0.8,0.2,1.3,0.5,1.7c0,0.9,0.3,1.9,0.9,2.9c1.5,2.5,4.5,4.6,7.7,5.4c0.5,0.1,1,0.2,1.5,0.3
	c0,0.1,0,0.2,0,0.3c0.1,0.8,0.8,2.4,2.8,2.9c0.6,0.2,1.3,0.2,1.9,0.2l0,0c4,0,7.4-3.1,8.6-7.7c0,0,0,0,0,0c0.3,0,0.6,0,0.9-0.1
	c1-0.1,2-0.3,2.9-0.7C45,380.1,45.3,379.2,45,378.4L45,378.4z M20.6,378.3c-0.4-0.7-0.5-1.2-0.4-1.4c0.1-0.3,0.1-0.6,0-0.8
	c0.2-0.2,0.3-0.4,0.4-0.7c0.3-1.2,4.2-2.8,8.1-1.9c1.3,0.3,2.5,0.9,3.5,1.6c0.1,1,0,2.4-0.3,3.9c-0.4,1.5-1,2.8-1.6,3.6
	c-1.2,0.1-2.5,0-3.8-0.3C23.6,381.6,21.4,379.8,20.6,378.3L20.6,378.3z M37.5,380.4c-0.8,3.3-3.1,5.5-5.7,5.5c-0.2,0-0.3,0-0.5,0
	c1.5-1.4,2.7-3.9,3.3-6.2c0.6-2.5,0.6-5.1,0-7c1.4,0.6,2.2,1.7,2.6,2.5C37.9,376.7,38,378.5,37.5,380.4L37.5,380.4z"/>
<path class="st0" d="M117.6,444.4h0.1c5.5,0,9.7-3.6,9.8-8.3c0-2-1.3-3.1-2.1-3.4c-0.1,0-0.2,0-0.3,0c0.1-0.5,0.1-1,0.1-1.5
	c0-3.3-1.2-6.7-3.3-8.8c-0.8-0.8-1.7-1.4-2.6-1.6c-0.2-0.4-0.7-1-1.5-1c-0.8,0-1.3,0.5-1.6,0.9c-3.1,0.6-6.1,5.4-6.1,10.2
	c0,0.5,0,1,0.1,1.5c-0.1,0-0.2,0-0.3,0c-0.8,0.3-2.1,1.3-2.1,3.4c0,2.4,1,4.6,2.9,6.2c1.1,0.9,2.4,1.5,3.9,1.9
	c0,0.1-0.1,0.2-0.1,0.3c-0.2,0.7-0.6,1.2-1,1.7c-0.5,0.6-0.4,1.6,0.2,2.1c0.3,0.2,0.6,0.3,0.9,0.3c0.4,0,0.9-0.2,1.2-0.6
	c0.6-0.8,1.1-1.6,1.4-2.6C117.4,444.9,117.5,444.6,117.6,444.4L117.6,444.4z M117,423.7L117,423.7c0.3,0,0.6-0.1,0.8-0.2
	c0.2,0.1,0.5,0.2,0.8,0.2c0.2,0,0.7,0.2,1.2,0.8c1.2,1.2,2.4,3.8,2.4,6.7c0,1.3-0.3,2.6-0.7,3.7c-1,0.3-2.3,0.6-3.9,0.6l0,0
	c-1.6,0-2.9-0.3-3.9-0.7c-0.4-1.1-0.7-2.4-0.6-3.8C113.2,427,115.8,423.7,117,423.7L117,423.7z M110.8,436.6c1.7,1.1,4.2,1.8,7,1.8
	c2.5,0,5-0.6,6.6-1.6c-0.5,3-3.6,4.6-6.7,4.6h-0.1c-1.9,0-3.7-0.6-4.9-1.6C111.8,439.1,111,438.1,110.8,436.6z"/>
<path class="st0" d="M108.8,454.2c-0.4,0.5-0.9,1-1.4,1.4c-0.1,0.1-0.2,0.1-0.3,0.2c-1.7-3-4.4-4.8-7.5-4.8c-0.7,0-1.4,0.1-2.1,0.3
	c-1.9,0.5-2.6,2.1-2.7,2.9c0,0.1,0,0.2,0,0.3c-0.5,0.1-1,0.2-1.5,0.3c-4.7,1.3-8.5,5.3-8.4,8.5c-0.3,0.4-0.7,1-0.5,1.8
	c0.2,0.8,0.8,1.1,1.3,1.2c0.4,0.8,1.2,1.5,2.2,2.1c1.6,0.9,3.7,1.4,5.8,1.4c1.2,0,2.4-0.2,3.5-0.5c0.5-0.1,1-0.3,1.4-0.5
	c0,0.1,0.1,0.2,0.1,0.2c0.4,0.6,1.4,1.3,2.7,1.3c0.3,0,0.7,0,1.1-0.1c2.1-0.5,3.7-1.8,4.7-3.7c1.3-2.2,1.6-5.1,0.8-8
	c0.2-0.1,0.5-0.3,0.8-0.5c0.8-0.6,1.6-1.2,2.2-2c0.5-0.7,0.4-1.6-0.3-2.1C110.3,453.4,109.3,453.5,108.8,454.2z M96.6,466.4
	c-2.8,0.8-5.6,0.2-7.1-0.7c-0.7-0.4-1-0.8-1.1-1c-0.1-0.3-0.2-0.5-0.4-0.7c0.1-0.2,0.1-0.5,0-0.8c-0.3-1.2,2.3-4.5,6.1-5.6
	c1.3-0.4,2.6-0.5,3.8-0.4c0.6,0.9,1.2,2.1,1.6,3.6c0.4,1.5,0.5,2.9,0.4,3.9C99,465.5,97.9,466,96.6,466.4L96.6,466.4z M104.9,465
	c-0.5,0.9-1.3,1.6-2.2,2c0.6-1.9,0.5-4.5-0.1-7c-0.6-2.3-1.9-4.7-3.4-6.1c2.8-0.3,5.4,1.9,6.3,5.3
	C105.9,461.4,105.8,463.5,104.9,465L104.9,465z"/>
<path class="st0" d="M199.1,484.5c1,0,1.9-0.1,2.2-0.8c0-0.1,0.1-0.2,0-0.3c0,0,0-0.1,0-0.2c0.1-0.7,0.1-1.5-9.8-3.3
	c0.1-3.6-0.1-10.9-4.5-13.7c-0.9-0.6-1.8-0.9-2.7-0.9c-2.5,0-3.8,2.1-4.7,3.5c-0.1,0.2-0.3,0.5-0.5,0.8c-0.4-0.3-0.6-1.2-1-3.8
	l-0.2-1.7c-0.4-2.8-1.3-8.5-7.1-10.2c-0.7-0.2-1.4-0.3-2.1-0.3c-4.2,0-5.4,4-6.1,6.4c-0.3,0.9-0.7,2.3-1.1,2.5
	c-0.8-0.6-0.7-4.5-0.7-6.1v-1.2c0-7.8-3.7-12.3-10-12.3c-0.6,0-1.3,0-1.9,0.1c-1.9,0.2-3.3,0.9-4.4,2.1c-1.9,2.4-1.5,5.9-1.1,8.9
	c0.1,1,0.3,2.6,0.2,3.3c-0.2,0.1-0.4,0.1-0.6,0.1c-1,0-2.2-1.1-3.4-3.5c-2.4-4.2-6.1-6.6-10.2-6.6s-7.9,2.3-10.6,6.4
	c-2.7,4.1-3.1,8.8-1.1,12.6c2,3.8,6.1,6,11,6c0.4,0,0.8,0,1.2,0c0.4,0,0.8,0,1.2,0c3,0,4.1,0.8,4.7,2.1c-0.6,0.5-1.9,1.1-2.8,1.5
	c-2.8,1.3-5.9,2.8-6.7,5.8c-0.4,1.7,0,3.5,1.3,5.4c3.6,4.7,7.7,5.6,10.4,5.6c3.3,0,6.7-1.4,9.5-4c0.4-0.4,0.8-0.7,1.1-1.1
	c1.6-1.5,3.8-3.5,5-3.5c0.1,0,0.4,0,0.6,0.2c0.1,0.4-0.4,1.6-0.7,2.3c-0.8,1.9-1.8,4.3-0.7,6.6c0.7,1.6,2.2,2.7,4.4,3.5
	c1.3,0.5,2.7,0.7,3.9,0.7c4.8,0,7.8-3.2,9.2-4.8l0.2-0.2c0.5-0.5,0.9-1,1.3-1.5c1.4-1.6,2.2-2.4,3-2.4h0c0.1,0.3,0.1,0.6,0.2,0.9
	c0.3,1.8,0.8,6.1,6.1,5.6c4.2-0.5,7.6-4.2,9.9-11.1C194.7,484.2,197.4,484.5,199.1,484.5L199.1,484.5z M180.5,490.4
	c-0.4,0-0.8,0-0.8,0c-0.2-0.2-0.4-1.2-0.4-1.8c-0.2-1.5-0.6-4-3.1-4.6c-0.5-0.1-1-0.2-1.5-0.2c-2.9,0-4.6,1.9-6.3,3.9
	c-0.4,0.4-0.8,0.9-1.2,1.4l-0.3,0.3c-1.2,1.3-3.1,3.4-5.9,3.4c-0.8,0-1.6-0.2-2.5-0.5c-1-0.3-1.6-0.8-1.8-1.1
	c-0.3-0.6,0.3-2,0.8-3.1c0.8-2,2.2-5.3-0.7-7.5c-1-0.8-2.1-1.1-3.3-1.1c-3,0-5.6,2.4-8.1,4.8c-0.4,0.4-0.7,0.7-1.1,1
	c-2,1.8-4.3,2.8-6.5,2.8c-2.5,0-4.9-1.4-6.8-3.8c-0.3-0.4-0.8-1.2-0.6-1.6c0.3-1,2.7-2.2,4.3-2.9c2.8-1.3,6.6-3.1,5.2-6.8
	c-2-5.4-7.3-5.4-9.1-5.4c-0.5,0-1,0-1.5,0c-3.7,0.3-6.6-1.1-7.9-3.6c-1.2-2.3-0.9-5.3,0.8-8c1.9-2.8,4.4-4.4,6.9-4.4
	c2.5,0,4.7,1.5,6.3,4.3c1.4,2.5,3.6,5.8,7.4,5.8c0.9,0,1.8-0.2,2.7-0.6c3-1.2,2.5-4.7,2.2-7.8c-0.2-2-0.6-4.6,0.2-5.5
	c0.1-0.1,0.3-0.4,1.4-0.5c0.5-0.1,1-0.1,1.4-0.1c1.5,0,5.5,0,5.6,7.9v1.2c0,3.4,0,7.2,2,9.3c1,1,2.3,1.4,3.7,1.3
	c3.3-0.3,4.2-3.4,4.9-5.7c1-3.4,1.4-3.4,2.7-3c2.9,0.8,3.5,3.6,3.9,6.5l0.2,1.7c0.5,3.4,1,6.9,5,7.8c0.2,0,0.5,0.1,0.7,0.1l0,0
	c2.1,0,3.2-1.8,4-3c0.3-0.5,0.8-1.3,0.9-1.4c0,0,0.1,0,0.4,0.2c1,0.6,2.5,2.6,2.4,9.2c-1.1-0.2-2.2-0.4-3.5-0.6
	c-16.6-2.9-37.5-11.2-44.4-13.9c-1.4-0.6-2.2-0.8-2.4-0.8c-0.2,0-0.4,0.1-0.6,0.2l0,0c-0.1,0.1-0.1,0.1-0.1,0.2
	c0,0.1-0.1,0.1-0.1,0.2c0,0.1,0,0.2,0,0.3c0.5,1.4,27.6,14.3,46.7,17.7c1.3,0.2,2.4,0.4,3.6,0.5C184.3,488.8,182,490.2,180.5,490.4
	L180.5,490.4z"/>
<path class="st0" d="M64.7,176.1l0.3,0.4l0,0.2h0.7c0.3,0,0.7,0,2.8-2.3c2.8,1.5,6.5,3.2,10.1,3.2c1.5,0,2.9-0.3,4-1
	c1.2-0.7,2-1.7,2.3-2.9c0.5-1.9-0.5-3.6-1.3-4.9c-0.1-0.2-0.3-0.5-0.4-0.7c0.6-0.2,1.9,0.3,3.5,0.8l1.9,0.6c1.3,0.4,3.3,1.1,5.4,1.1
	c2.7,0,4.9-1,6.6-2.9c1.3-1.3,1.9-2.8,1.9-4.2c-0.1-2.5-1.9-4.2-3.4-5.7c-0.6-0.5-1.5-1.4-1.7-1.9c0.1-0.1,0.1-0.1,0.4-0.1
	c1.3,0,3.6,1.2,5.5,2.1l0.8,0.4c7.8,3.7,13.9,1.6,16.1-5.1c0.7-1.8,0.6-3.4-0.1-4.9c-1.3-2.7-4.4-3.8-7.2-4.8
	c-0.9-0.3-2.3-0.8-2.9-1.2c0.1-0.9,0.7-2.1,4.7-2.1c4.6-0.1,8.3-2.2,10.2-5.6c2-3.6,1.8-8.2-0.7-12.6c-2.3-4.1-6.2-6.5-10.3-6.5
	c-4.7,0-8.8,3-10.9,7.9c-1.7,3.6-2.9,4.4-4.3,4.4c-0.2-0.7-0.1-2.1-0.1-3.1c0-2.9,0.1-6.2-2-8.3c-0.7-0.7-2-1.5-4-1.5
	c-0.5,0-1,0.1-1.6,0.2c-4.3,0.9-7.5,3-9.3,6.1c-1.8,3-2.1,6.7-0.9,10.6c0.2,0.6,0.3,1.2,0.5,1.8c0.9,3,1.6,5.6,0.5,6.1
	c-0.4-0.1-1.2-1.1-1.7-1.7c-1.4-1.6-3.1-3.6-5.8-3.6c-1.6,0-3.2,0.8-4.9,2.3c-5.2,5.3-3,11-2.1,13.5l0.1,0.3
	c0.2,0.6,0.4,1.1,0.6,1.6c0.9,2.4,1.1,3.1,0.8,3.8c-0.3-0.1-0.6-0.2-0.8-0.3c-0.9-0.3-1.9-0.6-3-0.6c-1.2,0-3.4,0.5-4.6,3.5
	c-1.6,4,0.3,8.7,5.7,14C64.4,175.2,64.6,175.7,64.7,176.1L64.7,176.1z M64.5,160.2c0.2-0.5,0.4-0.6,0.4-0.6c0.4,0,1,0.2,1.6,0.4
	c0.8,0.3,1.7,0.6,2.6,0.6c1.4,0,2.3-0.7,2.8-1.3c2.4-3,1.3-5.9,0.2-8.7c-0.2-0.5-0.4-0.9-0.6-1.5l-0.1-0.4c-1.1-2.8-1.8-5.8,1.1-8.7
	c1-0.9,1.6-1.1,1.8-1.1c0.6,0,1.6,1.1,2.4,2c1.2,1.4,2.8,3.2,5.1,3.2c0.6,0,1.2-0.1,1.8-0.4c4.9-2.1,3.2-7.7,2.1-11.5
	c-0.2-0.6-0.3-1.1-0.5-1.7c-0.8-2.7-0.7-5.1,0.5-7c1.2-2,3.4-3.4,6.3-4c0.3-0.1,0.5-0.1,0.8-0.1c0.6,0,0.8,0.2,0.8,0.2
	c0.7,0.7,0.7,3.3,0.7,5.1c0,3.1-0.1,7.3,3.7,7.6c5.2,0.5,7.6-3.3,9.3-7c1.4-3.3,3.9-5.2,6.8-5.2c2.5,0,4.9,1.6,6.4,4.2
	c1.7,3,1.9,6,0.7,8.2c-1.2,2-3.4,3.2-6.4,3.3c-7.1,0-8.9,3.6-9.1,6.7c-0.2,3.2,3.2,4.4,5.9,5.3c1.8,0.6,4.1,1.4,4.6,2.4
	c0.1,0.1,0.2,0.5-0.1,1.5c-1.1,3.5-3.2,3.9-4.7,3.9s-3.3-0.5-5.2-1.4l-0.8-0.4c-2.4-1.2-5.1-2.6-7.5-2.6c-2,0-3.6,1-4.5,2.8
	c-1.4,3,1.1,5.3,2.7,6.9c0.8,0.8,2,1.9,2,2.5c0,0.2-0.2,0.6-0.7,1.1c-0.9,1-1.9,1.4-3.3,1.4s-2.9-0.5-4-0.9l-1.8-0.6
	c-1.7-0.6-3.2-1.1-4.6-1.1c-1.7,0-3.1,0.7-4.2,2c-1.6,2-0.3,4.2,0.5,5.5c0.2,0.4,0.6,1.1,0.7,1.4c-0.1,0-0.1,0.1-0.2,0.1
	c-0.5,0.3-1.1,0.4-1.8,0.4c-2.3,0-5.1-1.2-7-2.2c1.6-1.9,3.7-4.4,6.3-7.6c10-12.2,25.8-25.9,32.8-31.5l0.2-0.1
	c1.8-1.3,2.7-2.1,2.8-2.3l0-0.3l-0.4-0.5h-0.4c-0.3,0-0.4,0-3.1,2.1c-6.1,4.3-24.4,17.2-35,30.1c-2.8,3.4-4.8,6.1-6.3,8.1
	C64,164,64,161.4,64.5,160.2L64.5,160.2z"/>
<path class="st0" d="M88.2,447.8L88.2,447.8c4.4,0,8.5-3.3,10.7-5.2c1.6,1.1,2.8,1.7,3.4,1.7c0.6,0,0.8-0.3,0.9-0.5c0,0,0,0,0-0.1
	c0.1-0.1,0.2-0.2,0.2-0.3c0.1-0.4,0.2-0.7-2.3-3.2c1.6-2.6,5.9-9.7,3.1-14.6c-1.2-2.1-2.8-2.6-4-2.6c-1.4,0-2.6,0.7-3.6,1.2
	c-0.2,0.1-0.4,0.2-0.7,0.3c-0.1-0.5,0.1-1.4,0.9-3.5l0.6-1.7c0.9-2.4,3-7.9-1.3-12c-1.3-1.4-2.7-2.2-4.3-2.2c-2.4,0-4.2,1.8-5.7,3.2
	c-0.6,0.6-1.6,1.6-2,1.6c-0.5-0.8,1.6-4.5,2.3-5.7l0.4-0.8c2.2-4.1,2.7-7.7,1.6-10.7c-0.9-2.5-2.9-4.4-5.9-5.6
	c-0.9-0.4-1.9-0.6-2.7-0.6c-4.3,0-6,4.3-7.2,7.5c-0.4,0.9-0.9,2.3-1.3,2.9c-0.9-0.2-2-0.9-2.1-4.5c0.2-3.7-0.8-6.8-3-9
	c-3.4-3.5-9.3-4.1-14.7-1.4c-4.2,2.2-6.8,6-6.8,10.3c0,4.5,2.7,8.6,7.4,11c3.8,1.7,4.4,3,4.3,4.3c-0.5,0.1-1.8,0.1-3.1,0
	c-0.8,0-1.6-0.1-2.5-0.1c-2.1,0-4.7,0.2-6.3,2.1c-1.1,1.2-1.5,3-1.2,5.1c1,7.1,5.7,11.6,12.2,11.6c1.3,0,2.7-0.2,4-0.5
	c0.6-0.1,1.2-0.3,1.8-0.5c1.7-0.4,3.4-0.9,4.7-0.9c1.2,0,1.3,0.3,1.4,0.6c-0.1,0.4-1.1,1.2-1.7,1.6c-1.6,1.2-3.5,2.8-3.8,5.3
	c-0.2,1.7,0.5,3.4,2,5.3c2.2,2.4,4.9,3.6,8,3.6c2.2,0,4.1-0.6,5.4-1l0.4-0.1c0.6-0.2,1.1-0.4,1.6-0.6c1.3-0.5,2.4-0.8,3.1-0.8
	c0.2,0,0.4,0,0.7,0.2c-0.1,0.3-0.2,0.6-0.3,0.9c-0.6,1.6-2.3,5.8,2.6,7.8C86.1,447.6,87.1,447.8,88.2,447.8L88.2,447.8z M82.3,433.8
	c-1.5,0-2.9,0.5-4.6,1.1c-0.5,0.2-1,0.4-1.5,0.5l-0.5,0.2c-1,0.3-2.4,0.8-3.9,0.8c-1.8,0-3.4-0.7-4.6-2.1c-0.7-0.8-1-1.5-0.9-1.9
	c0.1-0.7,1.2-1.6,2.1-2.3c1.8-1.4,4.4-3.5,3.1-6.8c-0.5-1.3-1.9-3.5-5.6-3.5c-1.9,0-3.9,0.5-5.8,1c-0.6,0.2-1.1,0.3-1.7,0.5
	c-1,0.3-2,0.4-2.9,0.4c-4.3,0-7-2.8-7.8-7.7c-0.1-0.8,0-1.3,0.2-1.5c0.2-0.2,0.8-0.6,2.9-0.6c0.7,0,1.5,0,2.2,0.1
	c0.8,0,1.5,0.1,2.2,0.1c3.4,0,5.2-1.2,5.5-3.4c0.9-5.4-3.2-7.9-6.7-9.5c-3-1.6-4.9-4.2-4.9-7c0-2.6,1.6-4.9,4.4-6.4
	c3.6-1.9,7.4-1.7,9.4,0.5c1.3,1.3,1.9,3.3,1.8,5.9c0.1,5.5,2.2,8.6,6.5,9.1l0.3,0c3,0,4.2-3,5.2-5.8c0.8-2,1.8-4.6,3.1-4.6
	c0.3,0,0.6,0.1,1.1,0.3c1.8,0.7,2.9,1.7,3.4,3c0.7,1.7,0.2,4.2-1.3,7l-0.4,0.8c-1.7,3-3.5,6.3-2.7,9.1c0.4,1.2,1.2,2.2,2.4,2.8
	c0.6,0.3,1.3,0.5,1.9,0.5c2.1,0,3.7-1.5,5.1-2.9c0.8-0.8,2-1.9,2.5-1.9c0.2,0,0.5,0.2,1.1,0.8c2.1,2.1,1.4,4.6,0.3,7.3l-0.6,1.7
	c-1.2,3-2.3,6.1,0.5,8.9c0.7,0.6,1.4,0.9,2.3,0.9l0,0c1.2,0,2.2-0.6,3.2-1c0.5-0.2,1.2-0.7,1.3-0.7c0,0,0.1,0.1,0.2,0.4
	c0.4,0.8,1,3.1-2.5,9.2c-1.8-1.7-4.1-3.8-7.1-6.6c-8.5-7.5-18.9-19.4-30.8-35.3c-0.9-1.2-1.5-1.8-1.7-1.8c-0.1,0-0.2,0-0.3,0
	c-0.2,0.1-0.4,0.3-0.5,0.6c-0.3,1.5,16.2,26.6,30.6,39.4c2.9,2.6,5.3,4.8,7.4,6.5c-2.8,2.3-5.1,3.5-7.1,3.5c-0.5,0-0.9-0.1-1.3-0.2
	c-0.4-0.2-0.6-0.3-0.6-0.3c-0.1-0.3,0.3-1.2,0.5-1.7c0.6-1.4,1.5-3.8-0.4-5.5C85.2,434.4,83.8,433.9,82.3,433.8L82.3,433.8z"/>
<path class="st0" d="M22.7,349.8c0.7,0.1,1.3,0.2,1.9,0.4c2.4,0.4,3.1,0.6,3.5,1.2c-0.2,0.2-0.5,0.4-0.7,0.6c-1.3,1.1-4.7,3.9-1.6,8
	c1.7,2.3,4.5,3.4,8.3,3.4c2.4,0,4.7-0.5,6.1-0.8c1.6,3.4,2.2,3.5,2.5,3.5c0.3,0,0.5-0.1,0.7-0.3l0.3-0.2c0.2-0.3,0.5-0.7-0.5-4.1
	c2.9-1.7,9.4-5.7,9.6-11c0-1.5-0.4-2.6-1.2-3.5c-1.4-1.4-3.4-1.5-4.8-1.5c-0.2,0-0.6,0-0.8,0c0.1-0.5,0.7-1.1,2.6-2.7l1.3-1.1
	c2.1-1.8,6.5-5.4,4.9-11.2c-0.8-2.9-2.8-4.5-5.5-4.5c-1.3,0-2.6,0.4-3.8,0.7c-0.9,0.2-1.8,0.5-2.4,0.5c-0.2,0-0.2,0-0.3-0.1
	c0.2-0.9,3.4-2.9,4.7-3.7l1-0.6c4-2.5,6.2-5.3,6.7-8.4c0.4-2.7-0.5-5.4-2.6-7.9c-1.6-2.2-3.5-2.6-4.8-2.6c-2.7,0-5.2,2-7.3,3.7
	c-0.8,0.6-2,1.6-2.5,1.9c-0.7-0.6-1.3-1.5,0.7-5.1c2.3-3.9,2.5-8.1,0.7-11.5c-2-3.7-6.2-6-11.2-6.2l-0.5,0c-4.7,0-8.7,2.2-10.6,5.9
	c-2,3.9-1.5,8.7,1.4,13c2.3,3.3,2,4.8,1.3,5.9c-0.7-0.2-1.9-1-2.7-1.5c-2.1-1.3-4.4-2.8-6.8-2.8c-1.7,0-3.9,0.7-5.4,4.2
	c-1.4,3.9-1.3,7.7,0.3,10.9c1.6,3.1,4.7,5.5,8.6,6.6c0.5,0.1,1,0.3,1.5,0.4c3.2,0.9,5.7,1.6,5.7,2.9c-0.3,0.2-1.5,0.5-2.3,0.6
	c-2,0.3-4.5,0.7-5.9,2.8c-1,1.4-1.2,3.2-0.7,5.5c1.6,7.3,7.6,8.5,10.2,9L22.7,349.8L22.7,349.8z M16.5,339.8c-0.3-1.4-0.1-1.9,0-2
	c0.3-0.5,1.8-0.8,2.9-0.9c2.1-0.3,5.6-0.9,6-4.5c0.5-5.1-5-6.6-8.9-7.7c-0.5-0.1-1-0.3-1.4-0.4c-2.7-0.8-4.8-2.3-5.9-4.4
	c-1-2-1.1-4.6-0.1-7.2c0.6-1.4,1.1-1.4,1.3-1.4c1.1,0,2.9,1.2,4.4,2.1c1.9,1.2,3.6,2.3,5.4,2.3c1.2,0,2.2-0.5,3-1.5
	c3.6-5,0.1-9.9-1-11.5c-2-2.9-2.4-5.9-1.1-8.3c1.2-2.2,3.6-3.5,6.7-3.5h0.4c3.4,0.1,6.2,1.6,7.5,3.8c1.1,2,0.9,4.5-0.6,7.1
	c-1.1,1.9-4.4,7.6,0.8,11.2c0.6,0.5,1.4,0.7,2.2,0.7l0,0c1.9,0,3.6-1.4,5.5-2.9c1.4-1.1,3.3-2.7,4.5-2.7c0.2,0,0.5,0,1.2,0.9
	c1.3,1.6,1.9,3.1,1.7,4.4c-0.3,1.8-1.9,3.6-4.6,5.3l-0.9,0.6c-2.9,1.8-6.2,3.8-6.8,6.7c-0.2,1.2,0.1,2.5,0.9,3.6
	c0.6,0.8,1.8,1.8,3.8,1.8c1.2,0,2.4-0.3,3.5-0.6c1-0.2,1.9-0.5,2.7-0.5c0.5,0,0.8,0,1.2,1.2c0.8,2.8-1.2,4.7-3.5,6.6l-1.3,1.1
	c-2.6,2.1-5.2,4.3-3.9,8.2c0.8,2.4,3.4,2.5,4.9,2.5c0.5,0,1.2,0,1.6,0.1c0,0.1,0,0.1,0,0.2c0,1.1-1,3.4-6.4,6.7
	c-0.8-2.3-1.8-5.2-3.1-8.9c-5.1-14.7-8-35-9.3-43.7c-0.4-3.1-0.9-4.7-1.4-4.7l-0.6,0.3c-0.7,1,0.8,30.2,7.5,49.3
	c1.4,3.9,2.5,6.8,3.5,9.1c-1.2,0.2-2.8,0.5-4.3,0.5c-2.3,0-3.9-0.5-4.8-1.6c-0.3-0.4-0.4-0.6-0.4-0.6c0.1-0.3,0.8-0.9,1.2-1.2
	c1.1-1,3.1-2.6,2.2-5c-1.2-3.6-4.2-4.1-7.2-4.6c-0.6-0.1-1.2-0.2-1.8-0.3l-0.4-0.1C20.4,344.7,17.5,343.8,16.5,339.8L16.5,339.8z"/>
<path class="st0" d="M18.7,244.3l0.2,0.2c0.5,0.4,1,0.8,1.4,1.1c1.9,1.6,2.5,2.1,2.5,2.8c-0.3,0.1-0.6,0.1-0.9,0.2
	c-1.6,0.3-6,1.1-5.3,6.2c0.5,4.1,4.4,7.3,11.4,9.3c-0.1,2.7,0.3,3.2,0.5,3.5c0.2,0.2,0.5,0.4,0.8,0.4c0.1,0,0.2,0,0.2,0
	c0.5,0,0.8,0,1.6-3.4c3.2,0,10.9-0.3,13.8-5c0.8-1.2,1-2.5,0.7-3.6c-0.5-1.9-2.2-2.9-3.5-3.6c-0.2-0.1-0.5-0.3-0.7-0.4
	c0.3-0.4,1.2-0.6,3.5-1.1l1.8-0.4c2.5-0.5,8.4-1.6,9.7-7.4c1.4-5.9-3.8-7.2-6.3-7.9c-0.8-0.2-2-0.5-2.4-0.8c0,0,0,0,0-0.1
	c0.8-0.8,4.3-0.9,6.2-1l0.9,0c4.5-0.3,7.8-1.7,9.8-4.1c1.7-2.1,2.3-4.9,1.8-8.1c-0.3-2-1.6-5.4-6.7-5.4c-1.5,0-3,0.3-4.4,0.5
	c-1.1,0.2-2.1,0.4-2.9,0.4c-0.1,0-0.2,0-0.2,0c-0.3-0.9-0.3-2.3,2.9-4.1c4-2.2,6.2-5.8,6.3-9.7c0.1-4.2-2.5-8.2-6.8-10.9
	c-5.1-3.1-11.2-2.4-14.7,1.4c-2.3,2.5-3.5,6.1-3.1,10.1c0.3,4-0.2,5.3-1.5,6c-0.5-0.6-1.2-1.8-1.6-2.7c-1.6-2.9-3.5-6.5-7.1-6.5
	c-1.4,0-2.8,0.6-4.1,1.7c-3.3,2.7-5.2,6-5.3,9.6c-0.2,3.6,1.4,7.1,4.4,10.1c0.4,0.4,0.9,0.8,1.3,1.3c2.3,2.2,4.1,4.1,3.2,5.1
	c-0.5,0-1.4-0.3-2.2-0.6c-1.2-0.5-2.6-1-4.1-1c-1.9,0-4.4,0.9-5.7,5.1C12,238.7,16.7,242.6,18.7,244.3L18.7,244.3z M18.4,232.8
	c0.5-1.9,1.1-1.9,1.4-1.9c0.7,0,1.6,0.4,2.6,0.7c1.2,0.4,2.5,0.9,3.8,0.9l0,0c1.5,0,2.8-0.6,3.6-1.8c3.3-4.2-0.9-8.3-3.7-11
	c-0.4-0.4-0.8-0.8-1.2-1.2c-2.1-2-3.2-4.4-3.1-6.7c0.1-2.2,1.4-4.4,3.7-6.3c0.8-0.6,1.2-0.7,1.3-0.7c1,0,2.4,2.6,3.2,4.1
	c1.4,2.5,2.8,5.1,5.4,5.1l0,0c0.5,0,1-0.1,1.4-0.3c5.4-2.1,5-7.7,4.7-10.6c-0.2-2.7,0.5-5.1,1.9-6.7c2.2-2.3,5.8-2.6,9.1-0.6
	c2.9,1.8,4.6,4.4,4.6,7c0,2.3-1.5,4.4-4,5.8c-6.3,3.6-5.6,7.9-4.6,10.3c0.5,1,1.6,2.2,4.1,2.2c1.1,0,2.3-0.2,3.6-0.4
	c1.2-0.2,2.5-0.4,3.6-0.4c1.8,0,2.1,0.5,2.2,1.6c0.3,2,0,3.5-0.8,4.6c-1.1,1.4-3.4,2.3-6.5,2.4l-0.8,0c-3.4,0.1-7.3,0.3-9.3,2.5
	c-0.8,0.9-1.3,2.1-1.2,3.5c0.3,3.3,3.6,4.1,5.7,4.7c3.5,0.9,3.4,1.2,3,2.5c-0.7,2.8-3.3,3.5-6.2,4.1l-1.8,0.4
	c-3.2,0.6-6.5,1.2-7.2,5.2c-0.5,2.5,1.8,3.8,3.1,4.6c0.4,0.2,1,0.6,1.3,0.8c0,0.1-0.1,0.1-0.1,0.2c-0.6,1-2.6,2.6-9,2.8
	c0.5-2.5,1.1-5.7,1.9-9.9c2.6-15.1,10.1-34.1,13.3-42.2c1.2-3.1,1.6-4.8,1.3-5.1c-0.1-0.1-0.3-0.2-0.5-0.2
	c-1.8,0-14.8,28.1-18.1,46.7c-0.8,4.4-1.3,7.7-1.7,10.2c-6-1.9-7.2-4.1-7.4-5.4c-0.1-0.5,0-0.7,0-0.7c0.2-0.2,1.2-0.4,1.7-0.5
	c1.5-0.3,3.9-0.8,4.4-3.3c0.7-3.8-1.7-5.8-4.1-7.7c-0.4-0.3-0.9-0.7-1.3-1.1l-0.3-0.2C19.4,239,17.3,236.8,18.4,232.8L18.4,232.8z"
	/>
<path class="st0" d="M394.6,180.6c-0.1,0.1-0.1,0.2-0.2,0.3c-0.4,0.6-0.9,1-1.4,1.4c-0.7,0.5-0.8,1.4-0.4,2.1
	c0.3,0.4,0.8,0.6,1.2,0.6c0.3,0,0.6-0.1,0.8-0.3c0.8-0.5,1.5-1.2,2.1-2.1c0.2-0.3,0.4-0.6,0.5-0.8c1.2,0.4,2.4,0.6,3.5,0.6
	c4,0,7.2-2.2,8.3-5.6c0.6-1.9-0.3-3.3-1-3.9c-0.1-0.1-0.2-0.1-0.2-0.1c0.2-0.5,0.4-0.9,0.5-1.4c1-3.1,0.8-6.8-0.6-9.4
	c-0.5-1-1.2-1.8-2-2.2c-0.1-0.5-0.4-1.1-1.2-1.4c-0.8-0.3-1.4,0.1-1.8,0.4c-3.2-0.2-7.3,3.4-8.8,8c-0.2,0.5-0.3,1-0.4,1.5
	c-0.1,0-0.2-0.1-0.3-0.1c-0.8,0.1-2.4,0.6-3,2.6c-0.7,2.3-0.4,4.7,1,6.8C392.3,178.8,393.4,179.8,394.6,180.6L394.6,180.6z
	 M397,167.8c1.2-3.8,4.6-6.3,5.8-5.9c0.3,0.1,0.6,0.1,0.8,0.1c0.2,0.2,0.4,0.3,0.7,0.4c0.2,0.1,0.6,0.4,1,1.1
	c0.8,1.5,1.2,4.4,0.4,7.1c-0.4,1.2-1,2.4-1.7,3.3c-0.1,0-0.2,0-0.4,0c-1.1,0-2.4-0.2-3.5-0.6c-1.5-0.5-2.7-1.1-3.5-1.8
	C396.4,170.3,396.6,169,397,167.8L397,167.8z M393.1,172.4c1.3,1.5,3.5,2.9,6,3.7c1.5,0.5,3,0.7,4.4,0.7c0.6,0,1.6-0.1,2.6-0.3
	c-0.9,1.8-2.8,2.9-5.2,2.9c-0.9,0-1.8-0.1-2.7-0.4c-1.8-0.6-3.4-1.6-4.3-3C393.4,175.2,392.9,174,393.1,172.4L393.1,172.4z"/>
<path class="st0" d="M383.4,191.9c0.3-0.1,0.5-0.1,0.9-0.3c1-0.3,1.9-0.8,2.6-1.4c0.7-0.5,0.8-1.4,0.3-2.1s-1.4-0.8-2.1-0.3
	c-0.5,0.4-1.1,0.7-1.8,0.9c-0.1,0.1-0.2,0.1-0.3,0.1c-0.9-4.1-4-7-8-7.1c-1.9,0-3,1.3-3.3,2c0,0.1,0,0.2,0,0.3
	c-0.5-0.1-1-0.1-1.5-0.1c-4.9-0.1-9.6,2.6-10.4,5.7c-0.4,0.2-1,0.7-1,1.5c0,0.8,0.5,1.3,0.9,1.6c0.2,0.9,0.7,1.8,1.5,2.6
	c2,2.1,5.4,3.5,8.7,3.6h0.3c0.4,0,0.8,0,1.1-0.1c0,0.1,0,0.2,0,0.3c0.3,0.8,1.3,2.1,3.3,2.2h0.2
	C379.7,201.4,383.2,197.4,383.4,191.9L383.4,191.9z M370,196.1c-2.9-0.1-5.4-1.4-6.6-2.6c-0.5-0.6-0.7-1-0.7-1.3
	c0-0.3,0-0.6-0.2-0.8c0.1-0.2,0.2-0.5,0.2-0.8c0-1.2,3.5-3.7,7.5-3.6c1.3,0,2.6,0.3,3.7,0.8c0.3,1,0.6,2.3,0.5,3.9
	c0,1.6-0.4,2.9-0.8,3.9C372.5,195.9,371.2,196.1,370,196.1L370,196.1z M375.5,198.4c1.1-1.7,1.8-4.3,1.9-6.8c0-2.6-0.6-5.1-1.5-6.8
	c2.8,0.5,4.6,3.3,4.5,6.9C380.3,195.4,378.3,198.1,375.5,198.4L375.5,198.4z"/>
<path class="st0" d="M399.7,285.7c1.2,0.8,2.6,1.1,4,1.1c3.2,0,6.3-1.9,8.2-5.2c0.3,0.1,0.5,0.1,0.9,0.2c0.6,0.1,1.3,0.2,1.9,0.2
	c0.4,0,0.7,0,1-0.1c0.8-0.1,1.4-0.8,1.3-1.7c-0.1-0.8-0.9-1.4-1.7-1.3c-0.6,0.1-1.3,0-2-0.1c-0.1,0-0.2,0-0.4-0.1
	c0.5-1.4,0.6-2.9,0.4-4.3c-0.3-2.5-1.7-4.5-3.8-5.8c-0.6-0.4-1.3-0.6-2-0.6c-1.1,0-1.9,0.5-2,0.6c-0.1,0.1-0.1,0.2-0.2,0.2
	c-0.4-0.3-0.8-0.6-1.2-0.8c-4.1-2.5-9.6-2.5-11.9-0.2c-0.5,0-1.2,0.1-1.6,0.8c-0.4,0.7-0.2,1.3,0,1.8c-0.3,0.9-0.3,1.9,0,3
	c0.7,2.8,3,5.7,5.8,7.4c0.4,0.3,0.9,0.5,1.3,0.7c0,0.1-0.1,0.2-0.1,0.3C397.7,282.9,397.9,284.6,399.7,285.7L399.7,285.7z
	 M410.6,275c0.2,1.6-0.2,3.4-1.2,5.1c-1.8,3-5,4.5-7.5,3.4c1.7-0.9,3.6-2.7,5-4.9c1.3-2.2,2.1-4.8,2.1-6.7
	C410,272.8,410.5,274,410.6,275L410.6,275z M393.8,273c-0.2-0.8-0.1-1.3,0-1.5c0.2-0.3,0.2-0.5,0.2-0.8c0.2-0.1,0.4-0.3,0.6-0.6
	c0.6-1,4.9-1.5,8.3,0.6c1.1,0.7,2.1,1.5,2.9,2.5c-0.2,1-0.6,2.3-1.5,3.7c-0.8,1.4-1.8,2.4-2.6,3c-1.2-0.2-2.4-0.7-3.5-1.4
	C395.8,277.1,394.2,274.7,393.8,273L393.8,273z"/>
<path class="st0" d="M431.7,267c-0.1-0.1-0.1-0.2-0.2-0.2c-0.1-0.1-0.6-0.3-1.3-0.3c-0.7,0-1.6,0.2-2.5,1.1
	c-1.5,1.5-2.4,3.4-2.5,5.5c0,1.7,0.4,3.4,1.3,5c-0.1,0-0.2,0.1-0.3,0.1c-0.6,0.3-1.2,0.5-1.9,0.5c-0.8,0.1-1.4,0.8-1.4,1.6
	c0.1,0.8,0.7,1.4,1.5,1.4c0,0,0.1,0,0.1,0c1-0.1,2-0.4,2.9-0.8c0.4-0.2,0.6-0.3,0.9-0.4c2.1,2.2,4.8,3.5,7.5,3.5
	c2,0,3.9-0.7,5.3-2.1c1.5-1.4,1.4-3.1,1-3.9c0-0.1-0.1-0.1-0.2-0.2c0.4-0.3,0.8-0.6,1.1-1c2.4-2.2,4-5.6,4.1-8.5
	c0-1.2-0.2-2.2-0.6-3c0.1-0.5,0.2-1.2-0.4-1.8c-0.5-0.6-1.2-0.6-1.8-0.5c-2.6-1.8-8.1-0.6-11.6,2.7
	C432.4,266.3,432.1,266.6,431.7,267L431.7,267z M430.4,278.5c-1.5-1.6-2.3-3.5-2.3-5.3c0-1.1,0.4-2,1-2.9c0.4,1.9,1.6,4.2,3.4,6.1
	c1.8,1.9,4,3.3,5.9,3.8C436.2,281.8,432.8,281,430.4,278.5L430.4,278.5z M442.7,265.7c0.2,0.2,0.5,0.4,0.7,0.5
	c0.1,0.2,0.2,0.5,0.4,0.7c0.2,0.2,0.3,0.6,0.3,1.4c0,1.7-1,4.4-3.1,6.4c-0.9,0.9-2,1.6-3.1,2.1c-1-0.5-2.1-1.3-3.1-2.4
	c-1.1-1.1-1.8-2.3-2.2-3.3c0.5-1.1,1.3-2.1,2.3-3C437.7,265.4,441.9,264.9,442.7,265.7L442.7,265.7z"/>
<path class="st0" d="M397.1,362.3c-0.7-1.2-1.8-1.9-3.1-1.9c-0.1,0-0.3,0-0.4,0c-0.1,0-0.2,0.1-0.3,0.1c-0.2-0.5-0.4-0.9-0.7-1.3
	c-2.4-4.2-7.2-6.8-10.3-5.9c-0.4-0.2-1.1-0.5-1.8,0c-0.7,0.4-0.9,1-0.9,1.6c-0.7,0.6-1.2,1.5-1.5,2.6c-0.8,2.8-0.2,6.4,1.5,9.3
	c0.2,0.5,0.5,0.9,0.8,1.3c-0.1,0.1-0.2,0.1-0.2,0.2c-0.5,0.7-1.1,2.2-0.1,4c1.4,2.5,4,4,7.1,4c1.9,0,3.8-0.5,5.6-1.6
	c0.2,0.2,0.4,0.4,0.7,0.6c0.8,0.7,1.6,1.2,2.5,1.6c0.2,0.1,0.4,0.1,0.6,0.1c0.6,0,1.1-0.4,1.4-0.9c0.3-0.8-0.1-1.6-0.8-2
	c-0.6-0.2-1.2-0.6-1.7-1c-0.1-0.1-0.2-0.2-0.3-0.2C398.1,369.8,399,365.7,397.1,362.3L397.1,362.3z M381,358.3
	c0.2-0.8,0.5-1.2,0.7-1.3c0.3-0.1,0.5-0.4,0.6-0.5c0.2,0,0.5-0.1,0.8-0.2c1.1-0.6,5,1.1,7,4.5c0.7,1.1,1.1,2.4,1.3,3.5
	c-0.7,0.8-1.7,1.7-3,2.5c-1.4,0.8-2.7,1.2-3.8,1.4c-0.9-0.8-1.7-1.7-2.3-2.8C380.7,362.8,380.5,359.9,381,358.3L381,358.3z
	 M391.2,372c-1.4,0.8-2.8,1.2-4.1,1.2c-1.7,0-3.1-0.6-4.1-1.9c2,0.1,4.5-0.7,6.7-1.9c2.2-1.3,4.1-3.1,5-4.9
	C395.9,367.4,394,370.4,391.2,372L391.2,372z"/>
<path class="st0" d="M430.1,373.9c-1.4-2.9-6.7-4.5-11.4-3.3c-0.5,0.1-1,0.3-1.4,0.4c0-0.1-0.1-0.2-0.1-0.3
	c-0.5-0.8-2.1-1.7-3.8-1.2c-2.4,0.6-4.2,2.2-5.3,4.4c-0.6,1.3-0.9,2.7-0.9,4.2c-0.1,0-0.2,0-0.4,0c-0.7-0.1-1.3-0.2-1.9-0.5
	c-0.8-0.3-1.6,0-2,0.8c-0.3,0.8,0,1.6,0.8,2c0.9,0.4,1.9,0.6,2.9,0.7c0.4,0,0.7,0.1,0.9,0.1h0c1.2,4.6,4.6,7.7,8.6,7.7
	c0.6,0,1.3-0.1,1.9-0.2c2-0.5,2.7-2,2.8-2.9c0-0.1,0-0.2,0-0.3c0.5-0.1,1-0.2,1.5-0.3c3.2-0.8,6.2-2.9,7.7-5.4c0.6-1,0.9-2,0.9-2.9
	c0.3-0.3,0.7-0.9,0.5-1.7C431.2,374.4,430.6,374.1,430.1,373.9L430.1,373.9z M410.5,380.4c-0.5-1.9-0.4-3.7,0.3-5.2
	c0.4-0.9,1.2-2,2.6-2.5c-0.6,1.9-0.6,4.5,0,7c0.6,2.3,1.8,4.8,3.3,6.2C413.8,386.2,411.3,383.9,410.5,380.4L410.5,380.4z
	 M427.4,378.3c-0.9,1.5-3.1,3.3-5.8,4c-1.3,0.3-2.5,0.4-3.7,0.3c-0.6-0.9-1.2-2.1-1.6-3.6c-0.4-1.5-0.4-2.9-0.3-3.9
	c1-0.7,2.2-1.2,3.5-1.6c3.8-1,7.8,0.7,8.1,1.8c0.1,0.3,0.2,0.5,0.4,0.7c-0.1,0.2-0.1,0.5,0,0.8C427.9,377.1,427.8,377.6,427.4,378.3
	L427.4,378.3z"/>
<path class="st0" d="M333.5,444.3c0-0.1-0.1-0.2-0.1-0.3c4.1-1.1,6.9-4.2,6.8-8.1c0-2-1.4-3.1-2.1-3.3c-0.1,0-0.2,0-0.3,0
	c0-0.5,0.1-1,0.1-1.5c-0.1-4.8-3-9.5-6.1-10.2c-0.2-0.4-0.7-0.9-1.5-0.9c-0.8,0-1.3,0.5-1.6,1c-0.9,0.2-1.8,0.8-2.6,1.6
	c-2,2.1-3.3,5.5-3.3,8.8c0,0.5,0,1,0.1,1.5c-0.1,0-0.2,0-0.3,0c-0.8,0.3-2.1,1.4-2.1,3.4c0.1,4.7,4.3,8.3,9.8,8.3h0.1
	c0.1,0.3,0.2,0.5,0.3,0.9c0.4,1,0.8,1.8,1.5,2.6c0.3,0.4,0.7,0.6,1.2,0.6c0.3,0,0.7-0.1,0.9-0.3c0.6-0.5,0.7-1.5,0.2-2.1
	C334.1,445.5,333.8,444.9,333.5,444.3L333.5,444.3z M328.2,424.5c0.5-0.6,1-0.8,1.2-0.8c0.3,0,0.6-0.1,0.8-0.2
	c0.2,0.1,0.5,0.2,0.7,0.2h0.1c1.2,0,3.8,3.4,3.9,7.4c0,1.3-0.2,2.6-0.6,3.7c-1,0.4-2.4,0.7-4,0.7c-1.5,0-2.8-0.3-3.8-0.6
	c-0.4-1.1-0.7-2.4-0.7-3.7C325.7,428.3,327,425.7,328.2,424.5z M323.6,436.8c1.6,1,4.1,1.6,6.8,1.6l0,0c2.6,0,5.1-0.7,6.8-1.8
	c-0.4,2.8-3.1,4.7-6.7,4.8h-0.1C327.2,441.4,324,439.8,323.6,436.8L323.6,436.8z"/>
<path class="st0" d="M354.6,454.7c-0.5-0.1-1-0.2-1.5-0.3c0-0.1,0-0.2,0-0.3c-0.1-0.8-0.8-2.4-2.7-2.9c-0.7-0.2-1.4-0.3-2.1-0.3
	c-3.1,0-5.8,1.9-7.5,4.8c-0.1,0-0.2-0.1-0.3-0.2c-0.6-0.4-1-0.8-1.5-1.4c-0.5-0.7-1.4-0.8-2.1-0.3s-0.8,1.4-0.3,2.1
	c0.6,0.8,1.3,1.5,2.2,2c0.3,0.2,0.6,0.4,0.8,0.5c-0.8,2.9-0.5,5.8,0.8,8c1.1,1.8,2.7,3.1,4.7,3.7c0.4,0.1,0.7,0.1,1.1,0.1
	c1.3,0,2.3-0.7,2.7-1.3c0.1-0.1,0.1-0.2,0.1-0.3c0.5,0.2,0.9,0.3,1.4,0.5c1.1,0.3,2.3,0.5,3.5,0.5c2.1,0,4.2-0.5,5.8-1.4
	c1-0.6,1.8-1.3,2.2-2.1c0.5-0.1,1.1-0.4,1.3-1.2c0.2-0.8-0.1-1.4-0.5-1.8C363.1,460,359.2,456,354.6,454.7L354.6,454.7z
	 M345.4,467.1c-0.9-0.4-1.7-1.1-2.2-2c-0.9-1.5-1.1-3.7-0.5-5.8c0.9-3.2,3.2-5.4,5.7-5.4c0.2,0,0.4,0,0.6,0
	c-1.5,1.4-2.8,3.8-3.5,6.1C344.8,462.5,344.8,465.2,345.4,467.1L345.4,467.1z M359.9,464c-0.2,0.2-0.3,0.4-0.4,0.7
	c-0.1,0.2-0.4,0.6-1.1,1c-1.5,0.8-4.3,1.4-7.1,0.6c-1.3-0.3-2.4-0.9-3.4-1.6c-0.1-1,0-2.4,0.4-3.9c0.4-1.5,1-2.7,1.6-3.6
	c1.2-0.1,2.5,0,3.8,0.4c3.8,1,6.5,4.4,6.1,5.5C359.8,463.5,359.8,463.8,359.9,464L359.9,464z"/>
<path class="st0" d="M319,447.1c-4.1,0-7.9,2.4-10.2,6.7c-1.3,2.4-2.4,3.5-3.5,3.5c-0.2,0-0.4,0-0.6-0.1c-0.1-0.7,0.1-2.2,0.2-3.3
	c0.4-3,0.8-6.5-1.1-8.9c-1-1.2-2.5-2-4.2-2.1c-7.6-1-12,3.5-12.1,12.2v1.2c0,1.7,0,5.5-0.8,6.1c-0.3-0.3-0.8-1.7-1-2.5
	c-0.7-2.4-1.9-6.4-6.1-6.4c-0.6,0-1.4,0.1-2.1,0.3c-5.9,1.7-6.7,7.4-7.1,10.2l-0.2,1.7c-0.4,2.6-0.6,3.5-1,3.8
	c-0.2-0.2-0.4-0.5-0.5-0.8c-0.9-1.4-2.2-3.5-4.7-3.5c-0.9,0-1.8,0.3-2.8,0.9c-4.4,2.8-4.6,10.1-4.5,13.7c-9.9,1.8-9.9,2.6-9.8,3.3
	c0,0.1,0,0.1,0,0.2c0,0.1,0,0.2,0.1,0.3c0.2,0.7,1.1,0.8,2.2,0.8c1.6,0,4.4-0.2,8.2-0.8c2.3,6.9,5.7,10.7,9.9,11.1
	c0.3,0,0.6,0,0.8,0c4.4,0,5-3.9,5.3-5.6c0-0.3,0.1-0.6,0.2-0.9h0c0.8,0,1.6,0.8,3,2.4c0.4,0.5,0.9,1,1.3,1.5l0.2,0.3
	c1.4,1.5,4.4,4.8,9.2,4.8c1.3,0,2.6-0.2,3.9-0.7c2.3-0.8,3.7-1.9,4.4-3.5c1.1-2.3,0.1-4.7-0.7-6.6c-0.3-0.7-0.8-1.9-0.8-2.2
	c0.3-0.2,0.5-0.2,0.6-0.2c1.2,0,3.4,2,5,3.5c0.4,0.4,0.8,0.7,1.1,1.1c2.8,2.6,6.2,4,9.5,4c2.8,0,6.9-1,10.5-5.7
	c1.3-1.9,1.7-3.7,1.3-5.4c-0.8-3-3.9-4.5-6.7-5.8c-0.9-0.5-2.2-1.1-2.8-1.5c0.6-1.3,1.7-2.1,4.7-2.1c0.4,0,0.8,0,1.2,0
	c5.5,0.4,10-1.9,12.2-6c2-3.8,1.6-8.5-1.1-12.6C326.9,449.5,323,447.1,319,447.1L319,447.1z M326.7,464c-1.2,2.3-3.8,3.6-7,3.6
	c-0.3,0-0.6,0-0.9,0c-0.5,0-1-0.1-1.5-0.1c-1.7,0-7,0-9.1,5.4c-1.4,3.6,2.5,5.4,5.2,6.8c1.6,0.8,4,1.9,4.3,2.9
	c0.1,0.5-0.3,1.2-0.6,1.6c-2,2.5-4.3,3.9-6.9,3.9c-2.2,0-4.5-1-6.5-2.8c-0.4-0.3-0.7-0.7-1.1-1c-2.5-2.3-5-4.8-8.1-4.8
	c-1.2,0-2.3,0.4-3.3,1.1c-2.9,2.2-1.5,5.5-0.7,7.5c0.5,1.1,1,2.5,0.8,3.1c-0.2,0.4-0.8,0.8-1.8,1.1c-0.9,0.3-1.7,0.5-2.5,0.5
	c-2.9,0-4.7-2-6-3.4l-0.3-0.3c-0.5-0.5-0.9-0.9-1.2-1.4c-1.8-2-3.5-3.9-6.3-3.9c-0.5,0-1,0.1-1.5,0.2c-2.6,0.5-3,3.1-3.2,4.6
	c-0.1,0.5-0.2,1.5-0.4,1.8c0,0-0.3,0.1-0.8,0c-1.6-0.2-3.8-1.6-5.9-7.3c1.1-0.2,2.3-0.4,3.6-0.5c19.1-3.4,46.2-16.3,46.7-17.7
	c0-0.1,0-0.2,0-0.3c0-0.1,0-0.2-0.1-0.2c0-0.1-0.1-0.1-0.1-0.2c-0.1-0.2-0.3-0.2-0.5-0.2s-0.2,0-2.4,0.9c-6.9,2.7-27.8,11-44.4,13.9
	c-1.3,0.2-2.4,0.4-3.5,0.6c0-6.5,1.5-8.5,2.4-9.2c0.1-0.1,0.2-0.1,0.3-0.2c0.3,0.2,0.7,0.9,1,1.4c0.9,1.4,2.1,3.5,4.8,3
	c4-0.9,4.5-4.4,5-7.8l0.2-1.6c0.5-3,1.1-5.7,3.9-6.5c1.3-0.4,1.7-0.4,2.7,3c0.7,2.3,1.6,5.4,4.9,5.7c1.5,0.1,2.7-0.3,3.7-1.3
	c2.1-2.1,2-5.9,2-9.3v-1.2c0-7.9,4-7.9,5.5-7.9c0.5,0,0.9,0,1.5,0.1c0.9,0.1,1.2,0.4,1.3,0.5c0.7,0.9,0.4,3.6,0.2,5.5
	c-0.4,3.1-0.8,6.6,2.1,7.8c0.9,0.4,1.8,0.6,2.7,0.6c3.8,0,6-3.3,7.4-5.8c1.6-2.8,3.8-4.3,6.3-4.3s5.1,1.6,6.9,4.4
	C327.7,458.7,328,461.7,326.7,464L326.7,464z"/>
<path class="st0" d="M397.2,407.4c-0.8,0-1.6,0-2.5,0.1c-1.3,0.1-2.6,0.1-3.1,0c-0.1-1.3,0.4-2.6,4.4-4.4c4.6-2.4,7.3-6.5,7.3-11
	c0-4.3-2.5-8.1-6.8-10.3c-5.4-2.8-11.3-2.2-14.7,1.4c-2.1,2.2-3.1,5.4-3,8.9c-0.1,4-1.3,4.5-2.1,4.7c-0.4-0.5-0.9-1.9-1.3-2.9
	c-1.2-3.1-2.9-7.5-7.2-7.5c-0.9,0-1.8,0.2-2.7,0.6c-3,1.2-5.1,3.1-6,5.6c-1.1,3-0.6,6.6,1.6,10.8l0.4,0.8c0.7,1.2,2.6,4.7,2.2,5.7
	c-0.5-0.2-1.3-1.1-1.9-1.6c-1.5-1.4-3.3-3.2-5.7-3.2c-1.5,0-3,0.7-4.2,2.1c-4.4,4.3-2.3,9.8-1.4,12.1l0.6,1.7c0.8,2.2,1,3,0.9,3.5
	c-0.2-0.1-0.5-0.2-0.6-0.3c-1-0.5-2.2-1.2-3.6-1.2c-1.2,0-2.8,0.5-3.9,2.5c-2.9,4.9,1.5,12.1,3,14.6c-2.5,2.5-2.5,2.8-2.4,3.2
	c0,0.1,0.1,0.3,0.3,0.4c0.1,0.1,0.1,0.2,0.2,0.3c0.1,0.1,0.5,0.2,0.7,0.2c0.6,0,1.8-0.6,3.4-1.7c2.2,1.9,6.3,5.2,10.7,5.2
	c1,0,2-0.2,3-0.6c4.8-2,3.2-6.2,2.5-7.8c-0.1-0.3-0.2-0.6-0.3-0.9c0.3-0.2,0.5-0.2,0.7-0.2c0.7,0,1.8,0.4,3.1,0.8
	c0.5,0.2,1,0.4,1.6,0.6l0.4,0.1c1.3,0.4,3.1,1,5.4,1c3.1,0,5.8-1.2,8.1-3.8c1.5-1.8,2.1-3.5,2-5.2c-0.3-2.5-2.2-4.1-3.8-5.3
	c-0.6-0.5-1.6-1.3-1.7-1.7c0.1-0.3,0.2-0.6,1.4-0.6c1.3,0,3,0.5,4.7,0.9c0.6,0.2,1.2,0.3,1.7,0.4c1.4,0.4,2.7,0.5,4,0.5
	c6.5,0,11.2-4.4,12.2-11.6c0.3-2.1-0.1-3.8-1.2-5.1C401.9,407.7,399.3,407.4,397.2,407.4L397.2,407.4z M400.3,414
	c-0.9,6.1-4.8,8.9-10.7,7.3c-0.5-0.1-1.1-0.3-1.7-0.4c-2-0.5-4-1-5.8-1c-3.7,0-5.1,2.2-5.6,3.5c-1.3,3.3,1.4,5.4,3.1,6.8
	c0.9,0.7,2,1.6,2.1,2.3c0,0.4-0.3,1.1-0.9,1.8c-1.4,1.5-2.9,2.2-4.7,2.2c-1.5,0-2.9-0.5-4-0.8l-0.4-0.1c-0.5-0.2-1-0.4-1.5-0.5
	c-1.6-0.6-3.1-1.1-4.6-1.1c-1.5,0-3,0.6-4.1,1.7c-1.9,1.8-1,4.1-0.4,5.5c0.2,0.5,0.6,1.5,0.5,1.7c0,0-0.2,0.2-0.5,0.3
	c-2,0.8-4.9-0.4-8.4-3.3c2-1.7,4.5-3.8,7.4-6.4c14.4-12.8,30.9-38,30.6-39.4c0-0.2-0.2-0.5-0.5-0.6c-0.1,0-0.2,0-0.3,0
	c-0.3,0-0.8,0.6-1.7,1.8c-12,15.9-22.3,27.8-30.9,35.3c-3,2.8-5.3,4.9-7.1,6.6c-3.5-6-2.9-8.4-2.5-9.2c0.1-0.1,0.1-0.2,0.1-0.2
	c0.3,0.1,1,0.4,1.4,0.7c0.9,0.5,2,1,3.1,1c0.9,0,1.7-0.3,2.4-0.9c2.8-2.7,1.6-5.8,0.5-8.9l-0.6-1.7c-1-2.7-1.8-5.3,0.5-7.5
	c0.5-0.5,0.8-0.7,0.9-0.7c0.6,0,1.8,1.2,2.5,1.9c1.4,1.4,3,2.9,5.1,2.9c0.7,0,1.3-0.2,1.9-0.5c1.2-0.6,2-1.6,2.4-2.8
	c0.8-2.9-1-6.2-2.7-9.1l-0.4-0.7c-1.5-2.9-2-5.4-1.3-7.1c0.5-1.3,1.6-2.3,3.5-3c0.4-0.2,0.7-0.2,1-0.2c1.2,0,2.3,2.6,3.1,4.6
	c1.1,2.7,2.3,5.8,5.2,5.8l0.4,0c4.1-0.5,6.3-3.6,6.4-9.3c-0.1-2.4,0.5-4.4,1.8-5.7c2-2.1,5.8-2.3,9.4-0.5c2.8,1.4,4.4,3.7,4.4,6.4
	c0,2.8-1.8,5.4-4.7,6.9c-3.6,1.6-7.7,4.2-6.8,9.5c0.3,2.3,2.1,3.5,5.5,3.5c0.7,0,1.4,0,2.2-0.1c0.7,0,1.5-0.1,2.2-0.1
	c2.1,0,2.7,0.4,2.9,0.6C400.3,412.7,400.4,413.3,400.3,414L400.3,414z"/>
<path class="st0" d="M437.5,306.8c-2.4,0-4.8,1.5-6.8,2.8c-0.8,0.5-2,1.3-2.7,1.5c-0.7-1.1-0.9-2.7,1.3-5.9
	c2.9-4.2,3.4-9.1,1.4-12.9c-1.9-3.7-5.9-5.9-10.6-5.9l-0.5,0c-5,0.2-9.2,2.5-11.2,6.2c-1.9,3.4-1.6,7.6,0.7,11.5
	c2,3.5,1.5,4.5,0.8,5.1c-0.6-0.3-1.8-1.2-2.5-1.8c-2.1-1.7-4.6-3.7-7.3-3.7c-1.3,0-3.1,0.5-4.6,2.5c-2.2,2.6-3.1,5.3-2.8,8
	c0.5,3.1,2.7,6,6.7,8.4l1,0.6c1.4,0.8,4.6,2.8,4.7,3.8c0,0-0.1,0-0.3,0c-0.6,0-1.5-0.2-2.4-0.5c-1.2-0.3-2.5-0.7-3.8-0.7
	c-2.8,0-4.7,1.6-5.5,4.5c-1.6,5.8,2.8,9.5,4.9,11.2l1.3,1.1c1.9,1.6,2.5,2.2,2.6,2.7c-0.3,0-0.6,0-0.8,0c-1.5,0-3.4,0-4.8,1.5
	c-0.8,0.9-1.2,2-1.2,3.5c0.1,5.4,6.6,9.4,9.6,11c-1,3.5-0.7,3.9-0.5,4.1l0.7,0.4l0.1,0l0.2,0.1c0.4,0,0.9,0,2.5-3.4
	c1.4,0.3,3.7,0.8,6.1,0.8c3.8,0,6.6-1.1,8.4-3.4c3.1-4.1-0.3-6.9-1.6-8c-0.2-0.2-0.5-0.4-0.7-0.6c0.4-0.6,1.1-0.8,3.5-1.2
	c0.6-0.1,1.2-0.2,1.9-0.4l0.4-0.1c2.6-0.5,8.6-1.7,10.2-9c0.5-2.3,0.3-4.1-0.7-5.5c-1.4-2.1-3.9-2.5-5.9-2.8c-0.8-0.1-2-0.3-2.2-0.5
	c-0.1-1.3,2.4-2.1,5.6-3c0.5-0.1,1-0.3,1.5-0.4c3.9-1.1,7-3.5,8.6-6.6c1.6-3.2,1.7-6.9,0.2-11C441.5,307.6,439.2,306.8,437.5,306.8
	L437.5,306.8z M405.4,364.9c0,0,0.1-0.1,0.1-0.1c0,0,0.1,0.1,0.1,0.1L405.4,364.9L405.4,364.9z M438.7,319.9c-1,2-3.1,3.6-5.9,4.4
	c-0.5,0.1-0.9,0.3-1.4,0.4c-3.9,1.1-9.4,2.5-8.9,7.7c0.4,3.6,3.9,4.1,6,4.5c1.1,0.2,2.6,0.4,2.9,0.9c0.1,0.1,0.3,0.6,0,2
	c-0.9,4.1-3.8,5-6.7,5.5l-0.4,0.1c-0.6,0.1-1.2,0.2-1.8,0.3c-2.9,0.5-6,1-7.2,4.6c-0.9,2.5,1.1,4.1,2.2,5c0.4,0.4,1.2,1,1.2,1.2
	c0,0,0,0.2-0.4,0.6c-0.8,1.1-2.5,1.7-4.8,1.7c-1.6,0-3.1-0.3-4.3-0.5c0.9-2.3,2-5.2,3.5-9.1c6.7-19.2,8.2-48.3,7.5-49.3l-0.6-0.3
	c-0.5,0-1,1.6-1.4,4.7c-1.2,8.7-4.1,29-9.3,43.7c-1.4,3.8-2.4,6.7-3.1,9c-5.5-3.3-6.4-5.6-6.4-6.7c0-0.1,0-0.2,0-0.3
	c0.4-0.1,1.1-0.1,1.6-0.1c1.5,0,4.1-0.1,5-2.5c1.3-3.8-1.4-6-3.9-8.2l-1.3-1.1c-2.3-1.9-4.2-3.8-3.5-6.6c0.3-1.2,0.7-1.2,1.2-1.2
	c0.7,0,1.7,0.3,2.6,0.5c1.2,0.3,2.3,0.6,3.5,0.6c2.1,0,3.2-1,3.8-1.8c0.8-1.1,1.1-2.4,0.9-3.6c-0.6-2.9-3.9-4.9-6.8-6.7l-0.9-0.6
	c-2.8-1.7-4.4-3.5-4.6-5.3c-0.2-1.4,0.4-2.8,1.8-4.5c0.6-0.8,1-0.8,1.1-0.8c1.1,0,3.1,1.5,4.5,2.7c1.9,1.6,3.6,2.9,5.5,2.9
	c0.8,0,1.5-0.2,2.1-0.7c5.3-3.6,2-9.4,0.9-11.2c-1.5-2.5-1.7-5-0.6-7.1c1.2-2.3,4-3.7,7.5-3.8l0.4,0c3.1,0,5.5,1.3,6.7,3.5
	c1.3,2.4,0.9,5.4-1.1,8.3c-1.1,1.6-4.6,6.5-0.9,11.6c0.7,0.9,1.8,1.5,3,1.5c1.8,0,3.5-1.1,5.4-2.3c1.5-0.9,3.3-2.1,4.4-2.1
	c0.2,0,0.7,0,1.2,1.2C439.8,315.3,439.8,317.8,438.7,319.9L438.7,319.9z"/>
<path class="st0" d="M407.9,193.4c-3.6-3.9-9.6-4.5-14.7-1.4c-4.3,2.6-6.8,6.7-6.8,10.9c0.1,3.9,2.4,7.4,6.3,9.7
	c3.3,1.9,3.2,3.3,2.9,4.1c-0.1,0-0.1,0-0.2,0c-0.7,0-1.8-0.2-2.9-0.4c-1.4-0.2-2.9-0.5-4.4-0.5c-5.1,0-6.4,3.4-6.7,5.4
	c-0.5,3.3,0,6,1.8,8.1c2,2.5,5.3,3.9,9.9,4.1l0.9,0c1.9,0.1,5.4,0.2,6.1,1c0,0,0,0,0,0.1c-0.4,0.3-1.6,0.6-2.4,0.8
	c-2.5,0.6-7.7,2-6.3,7.9c1.4,5.9,7.2,7,9.7,7.5l1.8,0.4c2.3,0.4,3.1,0.7,3.5,1.1c-0.2,0.1-0.5,0.3-0.7,0.4c-1.2,0.7-3,1.7-3.5,3.6
	c-0.3,1.2-0.1,2.4,0.7,3.7c2.9,4.7,10.6,4.9,13.8,5c0.8,3.3,1.1,3.3,1.6,3.3c0.1,0,0.2,0,0.2,0c0.2,0,0.6-0.2,0.8-0.4
	c0.2-0.2,0.6-0.7,0.5-3.5c7-2.1,10.9-5.2,11.4-9.3c0.7-5.1-3.7-5.9-5.3-6.2c-0.3-0.1-0.6-0.1-0.9-0.2c0-0.7,0.6-1.3,2.5-2.8
	c0.4-0.4,0.9-0.7,1.4-1.1l0.2-0.2c2-1.7,6.7-5.6,4.6-12.8c-1.2-4.2-3.8-5.1-5.7-5.1c-1.5,0-2.9,0.5-4.1,1c-0.8,0.3-1.7,0.6-2.4,0.6
	c-0.7-0.9,1.1-2.8,3.3-5c0.5-0.4,0.9-0.9,1.3-1.2c3-2.9,4.6-6.5,4.4-10.1c-0.2-3.6-2-6.9-5.3-9.6c-1.4-1.1-2.8-1.7-4.1-1.7
	c-3.6,0-5.6,3.6-7.1,6.5c-0.5,0.9-1.1,2.1-1.6,2.7c-1.3-0.6-1.9-1.9-1.5-6C411.3,199.5,410.2,195.9,407.9,193.4L407.9,193.4z
	 M411.1,213.8c0.5,0.2,1,0.3,1.5,0.3c2.6,0,4-2.6,5.4-5.1c0.8-1.6,2.3-4.1,3.2-4.1c0.1,0,0.6,0.1,1.3,0.7c2.3,1.9,3.6,4.1,3.7,6.3
	c0.1,2.3-1,4.6-3.1,6.7c-0.4,0.4-0.8,0.8-1.2,1.2c-2.8,2.7-7.1,6.9-3.8,11c0.9,1.2,2.1,1.8,3.7,1.8c1.3,0,2.5-0.5,3.8-0.9
	c0.9-0.3,1.9-0.7,2.6-0.7c0.3,0,0.8,0,1.4,1.8c1.2,4-1,6.2-3.2,8.1l-0.3,0.2c-0.5,0.4-0.9,0.7-1.3,1.1c-2.4,1.9-4.8,3.9-4.1,7.6
	c0.5,2.5,2.9,3,4.4,3.3c0.5,0.1,1.5,0.3,1.7,0.5c0,0,0.1,0.2,0,0.8c-0.2,1.2-1.4,3.4-7.4,5.4c-0.3-2.5-0.8-5.8-1.6-10.1
	c-3.2-18.5-16.3-46.7-18.1-46.7c-0.2,0-0.4,0.1-0.5,0.2c-0.3,0.3,0.2,2,1.4,5c3.2,8.1,10.6,27.1,13.3,42.2c0.8,4.2,1.4,7.5,1.9,9.9
	c-6.4-0.2-8.4-1.8-9-2.8c0-0.1-0.1-0.2-0.1-0.2c0.3-0.2,0.9-0.6,1.3-0.8c1.3-0.8,3.6-2.1,3.1-4.6c-0.8-3.9-4-4.6-7.2-5.2l-1.8-0.4
	c-2.9-0.5-5.5-1.3-6.2-4.1c-0.3-1.3-0.4-1.6,3.1-2.5c2.2-0.6,5.5-1.4,5.7-4.8c0.1-1.3-0.4-2.5-1.2-3.4c-2-2.2-5.9-2.3-9.3-2.5
	l-0.8,0c-3.2-0.2-5.5-1-6.6-2.5c-0.9-1.1-1.1-2.6-0.8-4.6c0.2-1.1,0.5-1.6,2.2-1.6c1.1,0,2.4,0.2,3.6,0.4c1.3,0.2,2.5,0.4,3.6,0.4
	c2.5,0,3.6-1.2,4.2-2.3c1-2.3,1.7-6.6-4.6-10.2c-2.6-1.5-4-3.5-4-5.8c0-2.6,1.7-5.2,4.6-7c3.3-2,7-1.7,9.1,0.6
	c1.5,1.6,2.2,4,1.9,6.7C406.2,206.2,405.8,211.7,411.1,213.8L411.1,213.8z"/>
<path class="st0" d="M323.7,122.3c-2.5,4.4-2.7,9-0.7,12.6c1.9,3.4,5.6,5.4,10.3,5.6c3.9,0,4.5,1.2,4.6,2.1
	c-0.5,0.4-1.9,0.8-2.9,1.2c-2.8,1-5.9,2.1-7.2,4.8c-0.7,1.5-0.7,3.1-0.1,4.8c2.2,6.8,8.2,8.9,16.1,5.2l0.8-0.4
	c1.8-0.9,4.1-2.1,5.5-2.1c0.2,0,0.3,0,0.4,0.1c-0.2,0.4-1.1,1.3-1.7,1.9c-1.5,1.4-3.4,3.2-3.4,5.7c0,1.5,0.6,2.9,1.8,4.2
	c1.7,2,4,2.9,6.7,2.9c2.1,0,4.1-0.7,5.4-1.1l1.9-0.6c1.5-0.5,2.8-1,3.5-0.8c-0.1,0.2-0.3,0.5-0.4,0.7c-0.8,1.2-1.8,2.9-1.3,4.9
	c0.3,1.2,1.1,2.1,2.4,2.9c1.1,0.6,2.5,1,4,1c3.5,0,7.3-1.7,10.1-3.2c2.1,2.3,2.5,2.3,2.8,2.3c0.2,0,0.4-0.1,0.6-0.2l0.2,0l0.2-0.4
	c0.2-0.3,0.4-0.9-1.2-3.5c5.3-5.3,7.2-10,5.7-14c-1.2-3-3.4-3.5-4.6-3.5c-1.1,0-2.1,0.3-3,0.6c-0.2,0.1-0.6,0.2-0.8,0.3
	c-0.3-0.7-0.1-1.4,0.8-3.8c0.2-0.5,0.4-1,0.6-1.6l0.1-0.3c0.9-2.4,3.1-8.2-2.2-13.5c-1.6-1.5-3.2-2.3-4.8-2.3c-2.7,0-4.4,2-5.8,3.6
	c-0.5,0.6-1.4,1.6-1.8,1.6c-1.1-0.5-0.4-3,0.5-6.1c0.2-0.6,0.4-1.2,0.5-1.7c1.2-3.9,0.9-7.6-0.9-10.6c-1.8-3.1-5.1-5.2-9.4-6.1
	c-2.8-0.5-4.7,0.5-5.5,1.4c-2,2-2,5.4-2,8.3c0,1,0,2.4-0.1,3.1c-1.4,0-2.6-0.8-4.3-4.3c-2.1-5-6.2-7.9-10.9-7.9
	C329.9,115.8,326,118.2,323.7,122.3L323.7,122.3z M327.6,124.5c1.5-2.6,3.9-4.2,6.4-4.2c2.8,0,5.4,2,6.8,5.3c1.6,3.5,3.8,7,8.4,7
	c0.3,0,0.6,0,0.9,0c3.8-0.4,3.8-4.5,3.7-7.6c0-1.8,0-4.4,0.7-5.1c0.1-0.1,0.2-0.2,0.8-0.2c0.2,0,0.5,0,0.7,0.1c3,0.6,5.2,2,6.4,4
	c1.1,1.9,1.3,4.3,0.5,7.1c-0.2,0.5-0.3,1.1-0.5,1.6c-1.1,3.8-2.9,9.4,2,11.5c0.6,0.3,1.2,0.4,1.8,0.4c2.3,0,3.9-1.8,5.1-3.2
	c0.8-0.9,1.7-2,2.4-2c0.2,0,0.7,0.1,1.7,1c3,3,2.2,5.9,1.1,8.7l-0.1,0.4c-0.2,0.5-0.4,1-0.6,1.5c-1.1,2.8-2.2,5.7,0.2,8.7
	c0.5,0.6,1.4,1.3,2.8,1.3c0.9,0,1.8-0.3,2.6-0.6c0.6-0.2,1.2-0.4,1.7-0.4c0,0,0.2,0.1,0.4,0.6c0.5,1.2,0.5,3.8-4.1,8.6
	c-1.5-2-3.5-4.7-6.3-8.1c-10.6-12.9-28.9-25.9-35-30.1c-2.6-2.1-2.8-2.1-3.1-2.1h-0.3l-0.5,0.5l0,0.4c0,0.3,0.9,1.1,2.8,2.3l0.2,0.1
	c7,5.6,22.8,19.4,32.8,31.5c2.7,3.3,4.7,5.8,6.3,7.6c-1.9,1-4.7,2.2-7,2.2c-0.7,0-1.3-0.1-1.8-0.4c-0.1-0.1-0.2-0.1-0.2-0.1
	c0.1-0.4,0.5-1,0.7-1.4c0.8-1.3,2.1-3.5,0.5-5.5c-1.1-1.4-2.5-2.1-4.2-2.1c-1.5,0-2.9,0.5-4.6,1.1l-1.9,0.6c-1.1,0.4-2.6,0.9-4,0.9
	s-2.4-0.5-3.4-1.5c-0.4-0.4-0.6-0.8-0.6-1c0-0.6,1.2-1.8,2-2.5c1.6-1.6,4.1-3.9,2.7-6.9c-0.8-1.8-2.5-2.7-4.5-2.7
	c-2.4,0-5.1,1.4-7.5,2.6l-0.7,0.4c-2,0.9-3.8,1.4-5.2,1.4s-3.5-0.4-4.7-4c-0.3-0.9-0.2-1.3-0.1-1.4c0.5-1,2.9-1.9,4.6-2.4
	c2.7-0.9,6.1-2.1,5.9-5.3c-0.2-3-2-6.7-9-6.7c-3-0.1-5.3-1.3-6.5-3.3C325.7,130.4,326,127.5,327.6,124.5L327.6,124.5z"/>
<path class="st0" d="M115.7,339.5l10.1-26.4h-5.7l-5.3,13.7c-0.8,2-1.5,4.4-2.2,6.8h-0.1c-0.7-2.5-1.4-4.8-2.2-6.9l-5.1-13.6h-6.1
	l10.1,26.4L115.7,339.5L115.7,339.5z"/>
<polygon class="st0" points="148.3,335.1 138.3,335.1 138.3,328 147.9,328 147.9,323.8 138.3,323.8 138.3,317.3 148.3,317.3 
	148.3,313 132.8,313 132.8,339.5 148.3,339.5 "/>
<polygon class="st0" points="168,339.5 168,317.7 175.4,317.7 175.4,313 155.2,313 155.2,317.7 162.5,317.7 162.5,339.5 "/>
<polygon class="st0" points="198.8,317.3 198.8,313 183.2,313 183.2,339.5 198.8,339.5 198.8,335.1 188.7,335.1 188.7,328 
	198.3,328 198.3,323.8 188.7,323.8 188.7,317.3 "/>
<path class="st0" d="M225.4,327.1l-8.9-14.1h-7.3v26.5h5.3l-0.1-13.8c0-2.4-0.1-4.1-0.2-5.5h0.1c0.7,1.6,1.7,3.5,2.7,5l9.1,14.3h7.3
	V313h-5.3l0.1,11.6c0,3.4,0.1,6,0.1,7.6h0C227.4,330.4,226.4,328.7,225.4,327.1L225.4,327.1z"/>
<path class="st0" d="M249.8,335.4c-2.2,0-4.3-0.4-5.9-1l-0.2,4.9c1.5,0.4,3.6,0.7,5.4,0.7c6.8,0,11.4-3.5,11.4-8.9
	c0-8.3-11.8-6.3-11.8-10.8c0-2,1.5-3.3,4.8-3.3c1.5,0,3.6,0.3,5.1,0.8l0.2-4.7c-1.5-0.3-3.5-0.5-5-0.5c-7,0-10.8,3.3-10.8,8.3
	c0,8.6,11.6,6.2,11.6,10.8C254.7,334.2,252.3,335.4,249.8,335.4L249.8,335.4z"/>
<polygon class="st0" points="270.2,313 270.2,339.5 275.8,339.5 275.8,327 285.6,339.5 292.8,339.5 281.5,325.7 292.3,313 
	285.5,313 275.8,324.8 275.8,313 "/>
<path class="st0" d="M304.6,334.3h11l1.9,5.1h6.1l-10-26.5h-6.5l-10,26.5h5.5L304.6,334.3L304.6,334.3z M308.8,322.9
	c0.5-1.4,1-2.9,1.3-4.1h0c0.4,1.2,0.9,2.8,1.4,4.2l2.8,7.4h-8.4L308.8,322.9L308.8,322.9z"/>
<path class="st0" d="M340.2,312.8c-3.1,0-6.4,0.1-8.6,0.2v26.5h5.5v-8.7c0.7,0.1,1.7,0.1,2.3,0.1c6.7,0,11.3-3.7,11.3-9.5
	C350.7,316,346.9,312.8,340.2,312.8L340.2,312.8z M339.4,326.5c-0.7,0-1.7,0-2.3-0.2v-9c0.7,0,1.7,0,2.7,0c3.4,0,5.1,1.9,5.1,4.5
	C344.9,324.8,342.8,326.5,339.4,326.5L339.4,326.5z"/>
<path class="st0" d="M115.8,384c7.6,0,13.9-5.2,13.9-13.9s-5.3-13.4-13-13.4s-13.7,5.2-13.7,13.9C102.9,378.5,107.2,384,115.8,384z
	 M116.3,361.5c4.5,0,7.5,3.1,7.5,9s-3.5,8.8-7.7,8.8c-5.2,0-7.3-4-7.3-9C108.8,364.5,112.2,361.5,116.3,361.5z"/>
<path class="st0" d="M149,383.9c2.6,0,4.9-0.4,7.1-1.2l-0.5-4.9c-1.6,0.8-3.6,1.2-5.5,1.2c-5.2,0-8.3-3-8.3-8.7c0-5.2,2.8-9,8-9
	c1.8,0,3.7,0.3,5.6,0.9l0.5-4.8c-1.8-0.5-4-0.7-5.7-0.7c-9.9,0-14.2,6.7-14.2,14.1C136,378.9,140.4,383.9,149,383.9L149,383.9z"/>
<polygon class="st0" points="188.2,383.6 188.2,357.1 182.8,357.1 182.8,367.6 170.3,367.6 170.3,357.1 164.8,357.1 164.8,383.6 
	170.3,383.6 170.3,372.4 182.8,372.4 182.8,383.6 "/>
<polygon class="st0" points="217.3,371.1 227.1,383.6 234.4,383.6 222.9,369.8 233.8,357.1 227,357.1 217.3,368.9 217.3,357.1 
	211.8,357.1 211.8,383.6 217.3,383.6 "/>
<path class="st0" d="M250.9,384c7.6,0,13.9-5.2,13.9-13.9s-5.3-13.4-13-13.4s-13.7,5.2-13.7,13.9C238,378.5,242.3,384,250.9,384z
	 M251.4,361.5c4.5,0,7.5,3.1,7.5,9s-3.4,8.8-7.7,8.8c-5.2,0-7.3-4-7.3-9C243.8,364.5,247.4,361.5,251.4,361.5L251.4,361.5z"/>
<path class="st0" d="M280.8,369.2l9.1,14.3h7.3v-26.4h-5.3l0.1,11.6c0,3.4,0,6,0.1,7.6h0c-0.9-1.8-1.9-3.6-2.9-5.2l-8.9-14.1h-7.3
	v26.4h5.4l0-13.8c0-2.5-0.1-4.1-0.2-5.5h0.1C278.8,365.8,279.7,367.6,280.8,369.2L280.8,369.2z"/>
<path class="st0" d="M313.3,379.5c-2.2,0-4.3-0.4-5.8-1l-0.2,4.9c1.5,0.4,3.6,0.7,5.4,0.7c6.8,0,11.4-3.5,11.4-8.9
	c0-8.3-11.8-6.3-11.8-10.8c0-2,1.5-3.3,4.8-3.3c1.5,0,3.6,0.3,5,0.8l0.2-4.7c-1.5-0.2-3.5-0.5-5-0.5c-7,0-10.8,3.3-10.8,8.3
	c0,8.6,11.6,6.1,11.6,10.8C318.1,378.4,315.8,379.5,313.3,379.5L313.3,379.5z"/>
<polygon class="st0" points="342.2,383.6 342.2,361.8 349.6,361.8 349.6,357.1 329.4,357.1 329.4,361.8 336.7,361.8 336.7,383.6 "/>
<path class="st0" d="M137.2,282.2l-0.6-0.1c-13.9-1.7-14-4.5-14.3-16V246l23.2,25.2c8.8,9.7,13.7,15,26.6,15c2.4,0,5-0.2,8.1-0.5
	l0.6-0.1l0.1-3.1l-0.7,0c-7.7-0.3-12-4.7-20.4-13.5c-1.2-1.2-2.4-2.5-3.7-3.8l-22.6-25.2l9.1-9.3l1.9-2c7.6-8,16.3-17.1,27.9-18.4
	l0.7-0.1v-3.1h-30.6v3.1l0.7,0.1c3,0.3,4.7,1,5.1,2.2c0.9,2.2-1.8,6.8-8.2,14l-17.8,18.9v-19.1c0.3-11.6,0.4-14.3,11.3-16l0.6-0.1
	v-3.1H96.9v3.1l0.7,0.1c12.9,1.7,12.9,4.5,13.3,16v39.6c-0.3,11.6-0.4,14.3-13.3,16l-0.7,0.1v3.1h40.3L137.2,282.2L137.2,282.2
	L137.2,282.2z"/>
<path class="st0" d="M238.9,282.2l-0.7-0.1c-14.5-1.7-15.1-5-15.1-18.7v-51.2h6c13.3,0,18.7,4.1,22.3,17l0.2,0.7l2.9-0.6l-1.4-22
	h-71.4l-1.4,22l2.9,0.6l0.2-0.7c3.6-12.8,9-17,22.3-17h6v51.2c0,13.7-0.6,17-15.1,18.7l-0.6,0.1v3.1h42.9L238.9,282.2L238.9,282.2
	L238.9,282.2z"/>
<path class="st0" d="M353.5,210.5l0.6-0.1v-3.1h-40.3v3.1l0.6,0.1c14.3,2.1,14.3,3.9,14.3,16V242h-40.6v-15.6c0-12.1,0-13.9,14.3-16
	l0.6-0.1v-3.1h-40.3v3.1l0.6,0.1c12.9,1.7,13,4.5,13.3,16v39.6c-0.4,11.6-0.4,14.3-13.3,16l-0.6,0.1v3.1h40.3v-3.1l-0.6-0.1
	c-14.3-2.1-14.3-3.9-14.3-16v-17.8h40.6v17.8c0,12.1,0,13.9-14.3,16l-0.6,0.1v3.1h40.3v-3.1l-0.6-0.1c-12.9-1.7-13-4.5-13.3-16
	v-39.6C340.5,214.9,340.6,212.2,353.5,210.5L353.5,210.5z"/>
<path class="st0" d="M130.8,105.2c-0.3,0.6-2.1,4.4,0.6,8.5c2.9,4.5,7.9,3.7,8.1,3.7c3.4,4.3,9.2,9.5,13.9,8.2
	c0,0,29.6-13.7,70.6-13.8h0c41.1,0.1,70.7,13.8,70.7,13.8c4.7,1.3,10.4-3.8,13.9-8.2c0.2,0,5.1,0.8,8.1-3.7c2.7-4.1,0.9-8,0.6-8.5
	c2.5-4,6.2-7.5,6.2-7.5c1.8-1.6,2.8-3.9,2.8-6.4c0-4.8-4-8.8-8.8-8.8c-0.4,0-0.8,0-1.1,0.1c-0.1-0.2-0.1-0.5-0.2-0.7
	c2.4-1.2,4-3.7,4-6.5c0-4.1-3.3-7.4-7.4-7.4c-1.4,0-2.6,0.4-3.7,1c-0.2-0.2-0.4-0.5-0.6-0.7c1.1-1.1,1.9-2.6,1.9-4.3
	c0-3.4-2.7-6.1-6.1-6.1c-2.1,0-3.9,1-5,2.6c-0.4-0.2-0.7-0.5-1.1-0.7c0.7-0.9,1.1-2,1.1-3.3c0-3-2.5-5.5-5.5-5.5
	c-2.4,0-4.4,1.5-5.2,3.7c-0.6-0.2-1.2-0.5-1.8-0.7c0.5-0.8,0.7-1.6,0.7-2.5c0-2.8-2.2-5-5-5c-2.5,0-4.6,1.8-4.9,4.2
	c-0.4-0.1-0.7-0.2-1.1-0.3c-0.8-2.9-3.5-5.1-6.7-5.1c-0.7,0-1.4,0.1-2,0.3c-0.3-0.2-0.5-0.4-0.8-0.6c0-0.1,0-0.2,0-0.3
	c0-3.3-2.7-5.9-5.9-5.9c-1.3,0-2.5,0.4-3.4,1.1c-0.2-0.1-0.5-0.2-0.7-0.3c0,0,0-0.1,0-0.1c0-3-2.4-5.3-5.4-5.3c-2,0-3.7,1.1-4.6,2.8
	c-0.4-0.1-0.8-0.2-1.2-0.2c0-0.1,0-0.1,0-0.2c0-2.7-2.2-4.9-4.9-4.9c-2.3,0-4.3,1.7-4.8,3.8c-0.5,0-0.9-0.1-1.4-0.1
	c0.6-1.4,0.9-2.9,0.9-4.5c0-4.4-2.5-8.3-6.2-10.2c0,0-1.4-0.7-3.3-1.1v-8.8h4.9c0.2-0.2,0.5-0.9,0.5-2.1s-0.3-1.8-0.5-2.1H226V1.5
	C225.8,1.3,225.2,1,224,1l0,0c-1.2,0-1.9,0.3-2.1,0.5v4.9H217c-0.2,0.2-0.5,0.9-0.5,2s0.3,1.9,0.5,2.1h4.9v8.8
	c-1.9,0.4-3.2,1.1-3.2,1.1c-3.7,1.9-6.2,5.8-6.2,10.2c0,1.6,0.3,3.1,0.9,4.5c-0.5,0-1,0.1-1.4,0.1c-0.5-2.2-2.4-3.9-4.7-3.9
	c-2.7,0-4.9,2.2-4.9,4.9c0,0.1,0,0.1,0,0.2c-0.4,0.1-0.9,0.2-1.3,0.2c-0.9-1.6-2.6-2.8-4.6-2.8c-2.9,0-5.4,2.4-5.4,5.3
	c0,0,0,0.1,0,0.1c-0.2,0.1-0.5,0.2-0.7,0.3c-1-0.7-2.1-1.1-3.4-1.1c-3.3,0-5.9,2.7-5.9,5.9c0,0.1,0,0.2,0,0.3
	c-0.3,0.2-0.5,0.4-0.8,0.6c-0.6-0.2-1.3-0.3-2-0.3c-3.2,0-5.9,2.2-6.7,5.1c-0.4,0.1-0.7,0.2-1.1,0.3c-0.4-2.4-2.4-4.2-4.9-4.2
	c-2.8,0-5,2.3-5,5c0,0.9,0.3,1.8,0.7,2.5c-0.6,0.2-1.2,0.5-1.8,0.7c-0.8-2.1-2.8-3.7-5.2-3.7c-3.1,0-5.6,2.5-5.6,5.5
	c0,1.2,0.4,2.3,1.1,3.3c-0.4,0.2-0.7,0.5-1.1,0.7c-1.1-1.6-2.9-2.6-5-2.6c-3.4,0-6.1,2.7-6.1,6.1c0,1.7,0.7,3.3,1.9,4.4
	c-0.2,0.2-0.4,0.5-0.6,0.7c-1.1-0.7-2.4-1-3.7-1c-4.1,0-7.4,3.3-7.4,7.4c0,2.9,1.6,5.3,4,6.5c-0.1,0.2-0.2,0.5-0.2,0.7
	c-0.4-0.1-0.8-0.1-1.1-0.1c-4.8,0-8.8,4-8.8,8.8c0,2.6,1.1,4.8,2.8,6.4C124.5,97.7,128.3,101.3,130.8,105.2L130.8,105.2z
	 M138.4,114.4c-3,0-5.4-2.4-5.4-5.4c0-1.1,0.4-2.2,0.9-3c1-1.4,2.6-2.4,4.5-2.4s3.5,0.9,4.5,2.4c0.6,0.9,0.9,1.9,0.9,3.1
	C143.8,112,141.4,114.4,138.4,114.4L138.4,114.4z M224,96.7c-3,0-5.4-2.4-5.4-5.4s2.4-5.4,5.4-5.4s5.4,2.4,5.4,5.4
	C229.4,94.3,226.9,96.7,224,96.7z M224,54.8c3,0,5.4,2.4,5.4,5.3s-2.4,5.3-5.4,5.3s-5.3-2.4-5.3-5.3C218.6,57.1,221,54.8,224,54.8z
	 M219.8,48.8c0-2.3,1.9-4.2,4.2-4.2s4.2,1.9,4.2,4.2S226.3,53,224,53C221.7,53,219.8,51.1,219.8,48.8z M224,67.5
	c3.7,0,6.6,3,6.6,6.6c0,1.7-0.6,3.2-1.6,4.4c-1.4-1.1-3.1-1.7-5-1.7s-3.6,0.6-5,1.7c-1-1.2-1.6-2.7-1.6-4.4
	C217.4,70.5,220.3,67.5,224,67.5L224,67.5z M309.6,114.4c-3,0-5.4-2.4-5.4-5.4c0-1.5,0.6-2.8,1.5-3.8c1-1,2.4-1.7,3.9-1.7
	c2.3,0,4.3,1.5,5.1,3.5c0.2,0.6,0.4,1.2,0.4,1.9C315,112,312.6,114.4,309.6,114.4L309.6,114.4z M317.5,85.5c3.2,0,5.8,2.6,5.8,5.8
	c0,2.1-2,4.7-3.9,5.8c-1.5-1.8-3.8-3-6.4-3c-0.2,0-0.4,0-0.7,0c-0.5-0.8-0.8-1.8-0.8-2.9C311.6,88.1,314.2,85.5,317.5,85.5
	L317.5,85.5z M312.8,70.9c2.4,0,4.4,2,4.4,4.4s-2,4.4-4.4,4.4s-4.4-2-4.4-4.4S310.3,70.9,312.8,70.9z M304.2,60.7
	c1.7,0,3.1,1.4,3.1,3.1s-1.4,3.1-3.1,3.1s-3.1-1.4-3.1-3.1C301.1,62.1,302.5,60.7,304.2,60.7z M293.7,53.9c1.4,0,2.5,1.1,2.5,2.5
	s-1.1,2.5-2.5,2.5s-2.5-1.2-2.5-2.5S292.3,53.9,293.7,53.9z M282.5,49.2c1.1,0,2,0.9,2,2s-0.9,2-2,2s-2-0.9-2-2
	S281.3,49.2,282.5,49.2z M275.8,55.3c17,5.4,25.8,13.6,29.8,21.8c3.3,7.5,2.7,9.3,3,14c0.1,1.7,0.5,2.8,0.8,3.8
	c-3.9,2.1-4.3,5.1-4.4,5.3c-0.2-0.1-0.3-0.2-0.5-0.3c-1.4-1.2-3.2-1.9-5.2-1.9c-6.2,0.1-10,6.1-7.5,11.9c0.6,1.4,4,6.5,10.8,4
	c0.4,0.5,0.9,1,1.4,1.5c-1.9,3.8-6.5,5.6-10.6,4c-4-1.6-6.9-4.9-8-8.8c-3,2.7-7.2,4-11.5,3.1c-4.6-0.9-7.5-5.3-6.7-9.9
	c0.1-0.4,0.5-2.1,0.7-2.7c0.6,3.2,3.1,5.8,6.4,6.5c4.4,0.9,8.8-2,9.6-6.4c0.9-4.4-2-8.7-6.5-9.6c-0.5-0.1-1,0-1.5,0
	c0.1-0.4,0.3-0.8,0.3-0.8c0.2-1,0.2-1.9,0-2.9c4-1.1,7-4.8,7-9.1c0-3.5-1.9-6.6-4.8-8.2c2.4-1.4,4-3.9,4-6.8c0-4.1-3.2-7.5-7.2-7.8
	C275.6,55.8,275.7,55.6,275.8,55.3L275.8,55.3z M269.9,81.3c-0.7-0.1-1.4-0.2-2-0.1c-0.3-0.7-0.4-1.5-0.4-2.3c0-3.6,2.9-6.5,6.5-6.5
	s6.5,2.9,6.5,6.5c0,3.1-2.2,5.7-5.1,6.3C274.2,83.3,272.3,81.8,269.9,81.3L269.9,81.3z M279.6,63.8c0,2.7-2.2,4.9-4.9,4.9
	s-4.9-2.2-4.9-4.9s2.2-4.9,4.9-4.9S279.6,61.1,279.6,63.8z M269.7,48c2.2,0,4,1.8,4,4s-1.8,4-4,4s-4-1.8-4-4S267.5,48,269.7,48z
	 M267,90.1c3,0,5.4,2.4,5.4,5.4s-2.4,5.4-5.4,5.4s-5.4-2.4-5.4-5.4S264.1,90.1,267,90.1z M261,41.5c1.6,0,2.9,1.3,2.9,2.9
	s-1.3,2.9-2.9,2.9s-2.9-1.3-2.9-2.9S259.4,41.5,261,41.5z M251.5,36.9c1.3,0,2.4,1,2.4,2.3s-1.1,2.3-2.4,2.3s-2.3-1-2.3-2.3
	S250.2,36.9,251.5,36.9z M240.8,34.3c1.1,0,1.9,0.8,1.9,1.9s-0.8,1.9-1.9,1.9s-1.9-0.8-1.9-1.9C238.9,35.2,239.7,34.3,240.8,34.3z
	 M262.1,80.8l1.2,2.1c-1.5,1.2-2.6,2.9-3,4.9c0,0,0,0.4,0,0.8c-0.5-0.2-0.9-0.4-1.4-0.5c-4.4-0.9-8.7,2-9.6,6.5
	c-0.9,4.4,2,8.7,6.5,9.6c3.4,0.7,6.6-0.9,8.4-3.6c-0.1,0.7-0.3,2.3-0.4,2.8c-0.9,4.6-5.3,7.6-9.9,6.7c-4.3-0.8-7.4-3.6-9.2-7.2
	c-2.4,3.2-6,5.3-10.4,5.3c-4.6,0-8.4-3.8-8.4-8.4c0-0.4,0.1-2.1,0.1-2.8c1.2,3,4.2,5.2,7.6,5.2c4.5,0,8.2-3.7,8.2-8.2
	s-3.7-8.2-8.2-8.2c-0.5,0-1,0.2-1.5,0.3c0.1-0.4,0.1-0.9,0.1-0.9c0-0.8-0.1-1.6-0.3-2.3l2.9-1.9c0,0-0.5-27.7-5.5-40.1
	c0.2-0.1,0.3-0.2,0.5-0.3C270.3,42.8,266.8,70.9,262.1,80.8L262.1,80.8z M232.4,29.9c0,0.2,0,0.4,0,0.5c0,1.7-0.5,3.2-1.4,4.5
	c-0.7,0-1.7,0-2.8,0c0.1-0.3,0.1-0.7,0.1-1.1c0-1.7-0.9-3.1-2.3-3.9L232.4,29.9L232.4,29.9z M226,22.3c2.4,0.6,4.5,2.3,5.6,4.4H226
	C226,26.7,226,22.3,226,22.3z M224,31.9c1,0,1.9,0.8,1.9,1.9s-0.8,1.9-1.9,1.9s-1.9-0.8-1.9-1.9S222.9,31.9,224,31.9z M224,37.5
	c1.6,0,2.8,1.3,2.8,2.8s-1.3,2.8-2.8,2.8s-2.8-1.3-2.8-2.8C221.2,38.7,222.4,37.5,224,37.5z M221.9,22.3v4.5h-5.5
	C217.5,24.6,219.5,22.8,221.9,22.3z M215.5,29.9h6.2c-1.4,0.8-2.3,2.2-2.3,3.9c0,0.4,0.1,0.7,0.1,1.1c-1,0-2,0-2.7,0
	c-0.8-1.3-1.4-2.8-1.4-4.5C215.5,30.2,215.5,30,215.5,29.9L215.5,29.9z M207.2,34.3c1,0,1.9,0.8,1.9,1.9s-0.8,1.9-1.9,1.9
	s-1.9-0.8-1.9-1.9S206.2,34.3,207.2,34.3z M196.4,36.9c1.3,0,2.3,1,2.3,2.3s-1,2.3-2.3,2.3s-2.4-1-2.4-2.3
	C194.1,37.9,195.1,36.9,196.4,36.9z M187,41.5c1.6,0,2.9,1.3,2.9,2.9s-1.3,2.9-2.9,2.9s-2.9-1.3-2.9-2.9S185.4,41.5,187,41.5z
	 M218.1,40.5c0.2,0.1,0.3,0.2,0.5,0.3c-4.9,12.4-5.5,40.1-5.5,40.1l2.9,1.9c-0.2,0.7-0.3,1.5-0.3,2.3c0,0,0.1,0.5,0.1,0.9
	c-0.5-0.1-1-0.3-1.5-0.3c-4.5,0-8.2,3.7-8.2,8.2s3.7,8.2,8.2,8.2c3.4,0,6.4-2.1,7.6-5.2c0.1,0.6,0.1,2.3,0.1,2.8
	c0,4.7-3.8,8.4-8.4,8.4c-4.3,0-7.9-2.1-10.4-5.3c-1.8,3.6-4.9,6.4-9.2,7.2c-4.6,0.9-9-2.1-9.9-6.7c-0.1-0.4-0.3-2.1-0.4-2.8
	c1.8,2.7,5,4.3,8.4,3.6c4.4-0.9,7.3-5.2,6.5-9.6s-5.2-7.3-9.6-6.5c-0.5,0.1-0.9,0.4-1.4,0.5c0-0.4,0-0.8,0-0.8c-0.4-2-1.5-3.7-3-4.9
	l1.2-2.1C181.1,70.9,177.6,42.8,218.1,40.5L218.1,40.5z M186.3,95.5c0,3-2.4,5.4-5.4,5.4s-5.4-2.4-5.4-5.4s2.4-5.4,5.4-5.4
	C183.9,90.1,186.3,92.5,186.3,95.5z M172.6,85.2c-2.9-0.7-5.1-3.2-5.1-6.3c0-3.6,2.9-6.5,6.5-6.5s6.5,2.9,6.5,6.5
	c0,0.8-0.2,1.6-0.4,2.3c-0.7,0-1.3,0-2,0.1C175.7,81.8,173.7,83.3,172.6,85.2L172.6,85.2z M178.3,48c2.2,0,4,1.8,4,4s-1.8,4-4,4
	s-4-1.8-4-4S176.1,48,178.3,48z M173.3,58.9c2.7,0,4.9,2.2,4.9,4.9s-2.2,4.9-4.9,4.9s-4.9-2.2-4.9-4.9
	C168.3,61.1,170.5,58.9,173.3,58.9z M165.5,49.2c1.1,0,2,0.9,2,2s-0.9,2-2,2s-2-0.9-2-2S164.4,49.2,165.5,49.2z M154.3,53.9
	c1.4,0,2.5,1.1,2.5,2.5s-1.1,2.5-2.5,2.5s-2.6-1.2-2.6-2.5C151.7,55,152.9,53.9,154.3,53.9z M172.1,55.3c0.1,0.2,0.3,0.5,0.4,0.7
	c-4,0.4-7.2,3.7-7.2,7.8c0,2.9,1.6,5.5,4,6.8c-2.9,1.6-4.8,4.7-4.8,8.2c0,4.4,3,8,7,9.1c-0.1,0.9-0.1,1.9,0,2.9c0,0,0.2,0.4,0.3,0.8
	c-0.5,0-1-0.1-1.5,0c-4.4,0.9-7.3,5.2-6.5,9.6c0.9,4.4,5.2,7.3,9.6,6.4c3.4-0.7,5.8-3.3,6.4-6.5c0.2,0.6,0.6,2.3,0.7,2.7
	c0.9,4.6-2.1,9-6.6,9.9c-4.3,0.8-8.5-0.4-11.5-3.1c-1.1,3.9-4,7.2-8,8.8c-4.1,1.6-8.6-0.2-10.6-4c0.5-0.4,1-0.9,1.4-1.5
	c6.8,2.4,10.2-2.6,10.8-4c2.5-5.8-1.3-11.9-7.5-11.9c-2,0-3.8,0.7-5.2,1.9c-0.2,0.1-0.3,0.2-0.5,0.3c-0.1-0.2-0.5-3.2-4.4-5.3
	c0.3-1,0.8-2.1,0.8-3.8c0.3-4.8-0.3-6.5,3-14C146.3,68.9,155.1,60.7,172.1,55.3z M143.8,60.7c1.7,0,3.1,1.4,3.1,3.1
	c0,1.7-1.4,3.1-3.1,3.1s-3.1-1.4-3.1-3.1C140.7,62.1,142.1,60.7,143.8,60.7z M130.8,75.3c0-2.4,2-4.4,4.4-4.4s4.4,2,4.4,4.4
	s-2,4.4-4.4,4.4C132.8,79.7,130.8,77.7,130.8,75.3z M130.5,85.5c3.2,0,5.8,2.6,5.8,5.8c0,1.1-0.3,2-0.8,2.9c-0.2,0-0.4,0-0.7,0
	c-2.6,0-4.8,1.2-6.4,3c-1.8-1.1-3.8-3.7-3.8-5.8C124.7,88.1,127.3,85.5,130.5,85.5L130.5,85.5z"/>
<path class="st0" d="M283.9,148.5c0.8,0,1.5-0.5,1.8-1.2c0.4-1-0.1-2.1-1.1-2.4c-19.1-7.1-39.2-10.7-59.9-10.7h-1.3
	c-20.6,0-40.8,3.6-59.9,10.7c-1,0.4-1.5,1.5-1.1,2.4c0.4,1,1.5,1.5,2.4,1.1c18.7-6.9,38.4-10.4,58.6-10.4h1.3
	c20.2,0,39.9,3.5,58.6,10.4C283.4,148.4,283.7,148.5,283.9,148.5L283.9,148.5z"/>
<path class="st0" d="M295.4,137.3l-2.8-7.4l-0.4-1.1l-3.6,0.6c-19.6-7.5-40.2-11.5-61.3-11.9l-3.4-1.9l-3.4,1.9
	c-21.1,0.4-41.7,4.4-61.3,11.9l-3.6-0.6l-0.4,1.1l-2.8,7.4l8,4.4l2.6-3.1c18.1-6.8,37.2-10.5,56.8-10.9l4.1,2.3l4.1-2.3
	c19.6,0.4,38.6,4.1,56.8,10.9l2.6,3.1L295.4,137.3L295.4,137.3z M159.9,138.1c-1.1-0.6-2.6-1.4-3.7-2c0.5-1.2,1-2.8,1.5-3.9
	c1.3,0.2,4,0.6,6.4,1.1C162.5,135,160.7,137,159.9,138.1L159.9,138.1z M193.5,128.5l-6.4,1.3c-1.8,0.4-3.5-0.8-3.9-2.5
	c-0.4-1.8,0.8-3.5,2.5-3.8l6.4-1.3c1.8-0.4,3.5,0.8,3.9,2.5C196.4,126.4,195.3,128.1,193.5,128.5L193.5,128.5z M224,126.7l-6.7-3.8
	l6.7-3.8l6.7,3.8L224,126.7L224,126.7z M264.7,127.3c-0.4,1.8-2.1,2.9-3.9,2.5l-6.4-1.3c-1.8-0.4-2.9-2.1-2.6-3.8
	c0.4-1.8,2.1-2.9,3.9-2.5l6.4,1.3C263.9,123.8,265.1,125.5,264.7,127.3L264.7,127.3z M284,133.1c2.4-0.4,5-0.8,6.4-1.1
	c0.4,1.2,1,2.7,1.5,3.9c-1.1,0.6-2.6,1.4-3.7,2C287.2,137,285.5,135,284,133.1L284,133.1z"/>
</svg>
